<?xml version="1.0" encoding="UTF-8"?>
<svg version="1.1" xmlns="http://www.w3.org/2000/svg" width="1024" height="1024">
<path d="M0 0 C337.92 0 675.84 0 1024 0 C1024 337.92 1024 675.84 1024 1024 C686.08 1024 348.16 1024 0 1024 C0 686.08 0 348.16 0 0 Z " fill="#F6F6F6" transform="translate(0,0)"/>
<path d="M0 0 C21.26559708 1.77035562 45.41038178 12.3096008 61 27 C61 27.66 61 28.32 61 29 C61.70125 29.226875 62.4025 29.45375 63.125 29.6875 C68.23434498 32.02002706 71.58088978 34.98898597 74 40 C74.680625 40.33 75.36125 40.66 76.0625 41 C78 42 78 42 78.75 44.125 C78.8325 44.74375 78.915 45.3625 79 46 C79.66 46 80.32 46 81 46 C81.33 46.99 81.66 47.98 82 49 C82.66 49.33 83.32 49.66 84 50 C84.82453758 51.32215323 85.58648688 52.68378453 86.3125 54.0625 C87.92882986 57.07712108 89.60452654 59.9663001 91.5 62.8125 C95.92202441 69.83158636 99.96032258 77.54916132 99 86 C99.66 86 100.32 86 101 86 C101.31932434 87.60282217 101.62994514 89.2073779 101.9375 90.8125 C102.11152344 91.70582031 102.28554688 92.59914063 102.46484375 93.51953125 C103.76972544 102.00602456 104.11163776 110.40300818 104.03515625 118.9765625 C104.03887046 121.0507862 104.04480058 123.1250069 104.05273438 125.19921875 C104.06323613 128.4049391 104.06269913 131.60843307 104.02416992 134.81396484 C103.88393881 147.89883941 104.66283727 158.12487021 111.18530273 169.64990234 C116.8162767 180.04519695 114.36168002 194.86636563 112 206 C111.01 206.33 110.02 206.66 109 207 C107.87765695 209.74433827 107.87765695 209.74433827 107 213 C104.57497477 219.85814154 102.14293057 226.32007621 98.05078125 232.36328125 C96.85485128 234.09835686 96.85485128 234.09835686 96 236.6875 C94.6418298 239.82826859 92.43493465 241.624454 90 244 C88.9935725 245.66279327 87.99414593 247.32983484 87 249 C84.40601094 252.26459418 81.67597557 255.34229404 78.6875 258.25 C76.76228767 259.99500355 76.76228767 259.99500355 76 263 C75.34 263 74.68 263 74 263 C73.74605469 264.02351563 73.49210937 265.04703125 73.23046875 266.1015625 C72.1368117 269.91450532 70.42878462 273.00723861 68.3125 276.375 C67.9616333 276.93590332 67.6107666 277.49680664 67.24926758 278.07470703 C64.5708559 282.28665251 61.58152793 286.15663447 58.44140625 290.02734375 C56.78718265 292.12014955 56.78718265 292.12014955 55.625 295.4375 C52.99445993 301.20445323 48.45366396 305.54633604 44 310 C43.90673284 311.56547048 43.88254418 313.13512772 43.88647461 314.70336914 C43.88658791 316.20481224 43.88658791 316.20481224 43.88670349 317.73658752 C43.89186478 318.8251152 43.89702606 319.91364288 43.90234375 321.03515625 C43.9037587 322.14354355 43.90517365 323.25193085 43.90663147 324.39390564 C43.91224967 327.95013069 43.92480525 331.50629383 43.9375 335.0625 C43.94251266 337.46679597 43.94707597 339.87109292 43.95117188 342.27539062 C43.96222501 348.18361504 43.97898083 354.0918031 44 360 C44.53639099 360.17582108 45.07278198 360.35164215 45.62542725 360.53279114 C51.37470241 362.43140646 57.0762901 364.44108365 62.765625 366.51171875 C64.13675446 367.00959648 64.13675446 367.00959648 65.5355835 367.51753235 C67.46534851 368.21868413 69.39489017 368.92045094 71.32421875 369.62280273 C74.1997744 370.66922281 77.0763946 371.71267389 79.953125 372.75585938 C91.95912797 377.11765203 103.91734106 381.59338355 115.84234619 386.17190552 C117.84148867 386.93916431 119.84161344 387.70378032 121.84228516 388.46704102 C124.89903925 389.63417873 127.95048679 390.8140782 131 392 C132.1859375 392.45890625 133.371875 392.9178125 134.59375 393.390625 C152.95609028 400.56457092 170.85873429 409.26651746 188 419 C188.92425781 419.50917969 189.84851563 420.01835938 190.80078125 420.54296875 C191.52652344 421.02378906 192.25226563 421.50460937 193 422 C193 422.66 193 423.32 193 424 C193.886875 424.226875 194.77375 424.45375 195.6875 424.6875 C199.4641247 426.18389846 201.38617976 427.92491737 204 431 C204 431.66 204 432.32 204 433 C204.804375 433.28875 205.60875 433.5775 206.4375 433.875 C209 435 209 435 210 437 C210.99 437.33 211.98 437.66 213 438 C214.66196899 439.94901027 216.18446502 441.87352373 217.6875 443.9375 C218.10322266 444.48857422 218.51894531 445.03964844 218.94726562 445.60742188 C222 449.73287408 222 449.73287408 222 452 C222.66 452 223.32 452 224 452 C227 457.75 227 457.75 227 460 C227.66 460 228.32 460 229 460 C229 461.32 229 462.64 229 464 C229.66 464 230.32 464 231 464 C240.08158806 483.97949373 241.6638392 503.26167197 241.52148438 525.06933594 C241.50699846 527.71960012 241.50347847 530.36667837 241.52148438 533.01660156 C241.54610261 536.88639795 241.54324852 540.75516182 241.53125 544.625 C241.53934692 545.81029297 241.54744385 546.99558594 241.55578613 548.21679688 C241.53687317 549.86131836 241.53687317 549.86131836 241.51757812 551.5390625 C241.51439575 552.50021973 241.51121338 553.46137695 241.50793457 554.45166016 C240.82716563 557.86712094 239.74871121 558.87684828 237 561 C234.4247118 561.39469397 232.27514304 561.5428002 229.70180607 561.510602 C228.96119986 561.51720534 228.22059365 561.52380869 227.45754483 561.53061214 C224.96114318 561.54795765 222.46567979 561.53670035 219.96925354 561.52571106 C218.16608822 561.53229971 216.36292858 561.54063809 214.55977863 561.5505802 C209.59072815 561.57286337 204.62195265 561.57014379 199.65286815 561.56346452 C194.29403282 561.5605854 188.9352784 561.58067937 183.57647705 561.59796143 C173.05013115 561.62826937 162.52386725 561.63728078 151.99748213 561.63942621 C139.66478576 561.6428173 127.33216164 561.66790064 114.99949586 561.69398209 C92.89282045 561.74005469 70.78615868 561.76744914 48.67944336 561.78393555 C27.41313725 561.79980851 6.14689157 561.82689975 -15.11938477 561.86791992 C-16.41740961 561.87042143 -17.71543445 561.87292293 -19.05279338 561.87550024 C-21.66917384 561.88055219 -24.28555429 561.88560662 -26.90193475 561.89066355 C-28.19383591 561.89316003 -29.48573708 561.89565651 -30.81678677 561.89822865 C-32.10619274 561.90072602 -33.39559872 561.9032234 -34.72407761 561.90579646 C-55.18100796 561.94503423 -75.63795344 561.9750695 -96.09490107 562.00367621 C-102.21100873 562.01225819 -108.32711526 562.02123151 -114.44322085 562.03119111 C-162.99838438 562.11022785 -211.55213073 562.14310469 -260.10543008 561.65120505 C-262.90202743 561.62401264 -265.6986349 561.60021634 -268.49527061 561.57734072 C-272.79716099 561.54147623 -277.09882307 561.49559851 -281.40051858 561.44124211 C-282.96196506 561.42288563 -284.52345307 561.40773837 -286.08496363 561.39604102 C-288.20295811 561.37940933 -290.32044019 561.35063324 -292.43824863 561.31853771 C-293.6172019 561.30527295 -294.79615516 561.29200819 -296.01083428 561.27834147 C-298.88418974 561.01078388 -300.56858401 560.49885154 -303 559 C-303 558.01 -303 557.02 -303 556 C-301.86697942 556.00151888 -300.73395885 556.00303776 -299.56660432 556.00460267 C-249.65283841 556.07125256 -199.73906954 556.13296725 -149.82527161 556.16937256 C-149.07006645 556.16992479 -148.3148613 556.17047702 -147.53677115 556.17104598 C-131.12568104 556.18301651 -114.71459044 556.1940974 -98.30349911 556.20426132 C-90.25596219 556.20925084 -82.2084254 556.21443703 -74.16088867 556.21972656 C-73.36004527 556.2202496 -72.55920186 556.22077263 -71.73409047 556.22131152 C-45.75807137 556.23836887 -19.78208697 556.268423 6.19391108 556.30518888 C32.87887335 556.34288978 59.56381639 556.36753492 86.24880484 556.37565996 C90.01447414 556.37681265 93.78014338 556.3781152 97.54581261 556.37950897 C98.65756219 556.37991351 98.65756219 556.37991351 99.79177136 556.38032622 C111.74142212 556.38506033 123.69101358 556.40363199 135.64064012 556.42732814 C147.642607 556.45083459 159.64451486 556.45988263 171.64650396 556.45400551 C178.15412534 556.45143255 184.66157209 556.45549545 191.16916275 556.4768219 C197.11852276 556.49617758 203.06758945 556.49734187 209.01696249 556.48359558 C211.17716895 556.48189473 213.33739316 556.48706147 215.49756429 556.49953273 C218.41872435 556.51542619 221.33880486 556.50703249 224.25994587 556.49219131 C225.11199398 556.50269937 225.9640421 556.51320742 226.84190986 556.5240339 C231.32806645 556.50791639 231.32806645 556.50791639 235.02397555 554.21598792 C236.59213266 550.65560865 236.38540075 547.05541124 236.328125 543.23828125 C236.32625183 542.37422165 236.32437866 541.51016205 236.32244873 540.61991882 C236.31572612 538.78490355 236.30180744 536.94990266 236.28125 535.11499023 C236.25061366 532.36753319 236.24032274 529.62065644 236.234375 526.87304688 C236.08030305 491.20781028 230.5571853 461.10903758 204.31079102 434.87402344 C198.13952297 428.9361409 191.3237718 424.38849349 184 420 C183.36094727 419.60780273 182.72189453 419.21560547 182.06347656 418.81152344 C160.69696491 405.80443347 136.61650163 396.98498519 113.27490234 388.23144531 C109.93529907 386.97567083 106.60181801 385.70474102 103.26953125 384.4296875 C87.2977495 378.3268493 71.26844321 372.38793796 55.21386719 366.50683594 C54.41629501 366.21424896 53.61872284 365.92166199 52.79698181 365.62020874 C51.29163421 365.06808644 49.78592374 364.51695217 48.27980042 363.96694946 C43.22427819 362.11213909 43.22427819 362.11213909 41 361 C37.08248816 351.53947691 37.27652959 340.81551776 37.16943359 330.75463867 C37.1397741 328.87419446 37.08501002 326.99398139 37.00537109 325.11499023 C36.30855142 308.64509801 36.30855142 308.64509801 40.30859375 303.48876953 C42.94488143 300.67171129 45.95180387 298.35829612 49 296 C51.06774308 293.77522366 52.91348679 291.41727216 54.75 289 C55.20407227 288.40880371 55.65814453 287.81760742 56.12597656 287.20849609 C62.52395546 278.78017066 67.62916409 270.40742533 71.34082031 260.48095703 C73.32252027 255.50951768 75.53092869 253.75751209 80 251 C81.97923163 249.01588051 83.67517887 246.85010234 85.375 244.625 C86.08390381 243.70787231 86.08390381 243.70787231 86.80712891 242.7722168 C91.53013151 236.52362841 95.39365998 229.9409695 99 223 C99.72316406 221.63294922 99.72316406 221.63294922 100.4609375 220.23828125 C107.74095516 205.47969999 112.15406896 186.01614886 107 170 C103.7442738 163.00052294 103.7442738 163.00052294 99 157 C98.73498535 154.72772217 98.73498535 154.72772217 98.71289062 151.85449219 C98.69947632 150.77866882 98.68606201 149.70284546 98.67224121 148.59442139 C98.66432556 146.83838593 98.66432556 146.83838593 98.65625 145.046875 C98.6416272 143.83992981 98.62700439 142.63298462 98.61193848 141.38946533 C98.56530176 137.50967777 98.53123559 133.62994027 98.5 129.75 C98.4585227 124.68211183 98.4045693 119.61456375 98.34375 114.546875 C98.33583435 112.8272757 98.33583435 112.8272757 98.32775879 111.07293701 C98.1926483 99.85612885 97.09725861 88.69859993 93.375 78.0625 C93.11340088 77.30727051 92.85180176 76.55204102 92.58227539 75.77392578 C83.89904615 51.63328088 67.30711745 33.85600572 46 20 C45.07832031 19.39285156 44.15664063 18.78570312 43.20703125 18.16015625 C30.05635289 9.98039721 14.96482771 4.76598313 0 1 C0 0.67 0 0.34 0 0 Z " fill="#DFDFDF" transform="translate(546,234)"/>
<path d="M0 0 C1.80156948 3.10356714 2.26241027 5.39155787 2.30639648 8.96459961 C2.32238388 9.94919662 2.33837128 10.93379364 2.35484314 11.94822693 C2.36020584 13.00558548 2.36556854 14.06294403 2.37109375 15.15234375 C2.38012222 16.24462784 2.3891507 17.33691193 2.39845276 18.46229553 C2.41295369 20.7713039 2.4218416 23.08035335 2.42553711 25.3894043 C2.43744475 28.92111308 2.48664407 32.45108118 2.53710938 35.98242188 C2.54657237 38.22655398 2.553808 40.4706968 2.55859375 42.71484375 C2.57812607 43.77017807 2.59765839 44.82551239 2.61778259 45.91282654 C2.61170486 46.90057571 2.60562714 47.88832489 2.59936523 48.90600586 C2.60443588 49.77108261 2.60950653 50.63615936 2.61473083 51.52745056 C1.68744802 55.25713595 0.00166023 56.63154824 -3 59 C-5.98731562 59.7213138 -8.89351353 59.66290677 -11.95491505 59.61523914 C-13.3159562 59.62389298 -13.3159562 59.62389298 -14.70449314 59.63272163 C-17.76144434 59.64601351 -20.81709301 59.6234802 -23.87397766 59.60127258 C-26.08093948 59.60345193 -28.28790004 59.60782791 -30.49485368 59.61421841 C-36.57216209 59.62542815 -42.64903209 59.60535794 -48.72628462 59.58032811 C-54.60287077 59.56099584 -60.4794079 59.56512768 -66.35601785 59.56873732 C-78.37849536 59.57530877 -90.40083554 59.55859253 -102.42327309 59.52865028 C-114.32871492 59.49907535 -126.23409957 59.47982263 -138.13957787 59.47438622 C-139.24952609 59.47387067 -139.24952609 59.47387067 -140.38189751 59.47334471 C-144.13973665 59.47165306 -147.89757584 59.47014614 -151.65541508 59.46871033 C-178.27918611 59.45820544 -204.9028824 59.42451081 -231.52661133 59.37719727 C-257.39281822 59.33128295 -283.25900467 59.29586105 -309.12524414 59.2746582 C-309.92241237 59.27400057 -310.71958059 59.27334294 -311.54090543 59.27266538 C-319.54632274 59.26607284 -327.55174021 59.25969376 -335.55715781 59.25347109 C-351.86543276 59.24078968 -368.17370637 59.22668341 -384.48197937 59.2117157 C-385.23182401 59.21102925 -385.98166864 59.2103428 -386.75423584 59.20963555 C-436.83618895 59.16362438 -486.91809833 59.08429355 -537 59 C-537 58.34 -537 57.68 -537 57 C-535.87332733 56.99940291 -534.74665467 56.99880582 -533.5858404 56.99819064 C-483.95165127 56.97162454 -434.31746842 56.94013008 -384.68330383 56.88336182 C-383.93232789 56.88250431 -383.18135196 56.8816468 -382.40761917 56.8807633 C-366.08842697 56.86209938 -349.76923596 56.84254705 -333.45004592 56.82207905 C-325.44757314 56.81204752 -317.44510011 56.8022124 -309.44262695 56.79248047 C-308.24808864 56.79102276 -308.24808864 56.79102276 -307.02941823 56.7895356 C-281.19892493 56.75810644 -255.36844208 56.73965581 -229.53793296 56.72790753 C-203.00239883 56.71577026 -176.46690844 56.69059547 -149.93140346 56.64892386 C-146.18681629 56.64304943 -142.44222891 56.63732466 -138.69764137 56.63169098 C-137.59211597 56.63002079 -137.59211597 56.63002079 -136.46425671 56.62831686 C-124.58157435 56.61075032 -112.69892552 56.60700187 -100.81623191 56.60837079 C-88.88145007 56.60945263 -76.9467545 56.59609617 -65.01200541 56.56783572 C-58.54085771 56.55312541 -52.06987269 56.54504161 -45.59871101 56.55419731 C-39.68262632 56.5624265 -33.76686985 56.5524896 -27.85083411 56.52766338 C-25.70275374 56.52193479 -23.55464272 56.52306375 -21.40657123 56.53148755 C-18.50171328 56.54190926 -15.59798331 56.52807848 -12.69320202 56.50780869 C-11.4223494 56.52116425 -11.4223494 56.52116425 -10.12582299 56.53478962 C-5.62186442 56.5179995 -5.62186442 56.5179995 -1.98159534 54.12170815 C-0.78326956 51.53153939 -0.60226305 49.62647507 -0.56762695 46.77246094 C-0.54783279 45.73168396 -0.52803864 44.69090698 -0.50764465 43.61859131 C-0.50125473 42.50179993 -0.49486481 41.38500854 -0.48828125 40.234375 C-0.47033005 39.08584045 -0.45237885 37.93730591 -0.43388367 36.75396729 C-0.37970659 33.08601552 -0.34586031 29.41819445 -0.3125 25.75 C-0.27933356 23.26300262 -0.24484454 20.7760225 -0.20898438 18.2890625 C-0.12397574 12.19282552 -0.05565704 6.09657178 0 0 Z " fill="#AEAEAD" transform="translate(783,734)"/>
<path d="M0 0 C3.12971397 2.87906588 5.13739079 5.68601769 7.125 9.4375 C7.62257813 10.36433594 8.12015625 11.29117188 8.6328125 12.24609375 C10.5986009 16.20575324 12.12373378 20.24138396 13.5 24.4375 C13.85578125 25.51837891 13.85578125 25.51837891 14.21875 26.62109375 C14.4765625 27.40613281 14.734375 28.19117188 15 29 C15.32339355 29.92256592 15.64678711 30.84513184 15.97998047 31.7956543 C20.16982488 44.95786297 19.37241756 59.26089108 19.37060547 72.90771484 C19.37503093 76.65116165 19.41159576 80.39347566 19.44921875 84.13671875 C19.45507848 86.52082933 19.45905351 88.90494546 19.4609375 91.2890625 C19.47530853 92.40568268 19.48967957 93.52230286 19.50448608 94.67276001 C19.49833282 95.70839081 19.49217957 96.74402161 19.48583984 97.81103516 C19.48868988 98.71923004 19.49153992 99.62742493 19.49447632 100.56314087 C18.80615036 103.95532231 17.77999763 104.92702256 15 107 C11.94520704 107.38833298 9.25343501 107.53026031 6.19936752 107.49219131 C5.29653735 107.49680669 4.39370717 107.50142207 3.4635185 107.50617731 C0.41612203 107.51682655 -2.63044141 107.49876995 -5.67779541 107.48101807 C-7.87564345 107.48276121 -10.07349068 107.48626138 -12.27133346 107.49137473 C-18.32803898 107.50034898 -24.38446334 107.48427732 -30.44113302 107.46426249 C-36.2964648 107.4488047 -42.15176499 107.45210142 -48.00711203 107.45498985 C-59.98716302 107.46024872 -71.96712585 107.44686751 -83.94715118 107.42292023 C-95.81155076 107.39926478 -107.67591362 107.38385901 -119.54033661 107.37950897 C-120.27759814 107.37923401 -121.01485967 107.37895906 -121.77446245 107.37867576 C-125.51853048 107.37732246 -129.26259854 107.37611692 -133.00666663 107.37496826 C-159.53669599 107.36656312 -186.06667736 107.33960394 -212.59667969 107.30175781 C-238.37271876 107.26502964 -264.1487447 107.23669051 -289.92480469 107.21972656 C-291.11627215 107.21893741 -291.11627215 107.21893741 -292.33180966 107.21813231 C-300.30849984 107.2128583 -308.28519013 107.20775503 -316.2618805 107.20277687 C-332.51180694 107.19263159 -348.76173252 107.18134658 -365.01165771 107.16937256 C-365.75882866 107.1688234 -366.50599961 107.16827424 -367.2758121 107.16770844 C-417.18389512 107.13089606 -467.09194998 107.06743102 -517 107 C-517 106.67 -517 106.34 -517 106 C-515.88005496 105.99940291 -514.76010993 105.99880582 -513.60622716 105.99819064 C-464.26536746 105.97162293 -414.92451418 105.94012467 -365.5836792 105.88336182 C-364.4637662 105.88207555 -364.4637662 105.88207555 -363.32122869 105.8807633 C-347.09670403 105.86209911 -330.87218055 105.84254676 -314.64765806 105.82207905 C-306.69153787 105.81204758 -298.73541744 105.80221244 -290.77929688 105.79248047 C-289.98755328 105.79150866 -289.19580969 105.79053686 -288.38007387 105.7895356 C-262.70207579 105.75810983 -237.02408822 105.73965683 -211.34607423 105.72790753 C-184.9658673 105.7157686 -158.58570436 105.6905893 -132.20552675 105.64892386 C-128.48234223 105.64304948 -124.75915749 105.6373247 -121.0359726 105.63169098 C-120.30317253 105.63057752 -119.57037247 105.62946406 -118.81536634 105.62831686 C-107.00354874 105.61075445 -95.19176488 105.60700164 -83.37993598 105.60837079 C-71.51458771 105.60945297 -59.64933206 105.59576325 -47.78401616 105.56783572 C-41.35122436 105.55313133 -34.9185961 105.54503665 -28.48579025 105.55419731 C-22.60357704 105.56243258 -16.72169366 105.55247245 -10.8395296 105.52766338 C-8.70489034 105.52193957 -6.57022023 105.52305656 -4.43558994 105.53148755 C-1.54645705 105.54192611 1.34154596 105.52805642 4.23060226 105.50780869 C5.07039729 105.51671239 5.91019232 105.5256161 6.77543569 105.53478962 C10.42005892 105.4853732 12.55566085 105.33228726 15.51802373 103.11696267 C17.33473134 100.52184541 17.4859206 99.10613941 17.45410156 95.95605469 C17.45379944 94.95531921 17.45349731 93.95458374 17.45318604 92.92352295 C17.43254089 91.85047913 17.41189575 90.7774353 17.390625 89.671875 C17.38496521 88.56773254 17.37930542 87.46359009 17.37347412 86.32598877 C17.35108768 82.80021774 17.30088496 79.27546376 17.25 75.75 C17.22993803 73.35938968 17.21168674 70.96876342 17.1953125 68.578125 C17.15121543 62.71840313 17.08427998 56.85927422 17 51 C16.67 53.31 16.34 55.62 16 58 C15.67 58 15.34 58 15 58 C14.97421875 56.97003906 14.9484375 55.94007813 14.921875 54.87890625 C14.27968937 36.8206464 10.34458001 19.34070346 0.91796875 3.70703125 C0 2 0 2 0 0 Z " fill="#CACAC9" transform="translate(767,687)"/>
<path d="M0 0 C0.99 0.495 0.99 0.495 2 1 C2.8515625 3.84375 2.8515625 3.84375 3.625 7.5 C4.01558594 9.27890625 4.01558594 9.27890625 4.4140625 11.09375 C5.52437477 18.49583182 5.04310053 25.51943786 3.8125 32.875 C3.68230469 33.65657471 3.55210937 34.43814941 3.41796875 35.2434082 C2.24210712 41.70730666 0.06954685 47.19302121 -3 53 C-3.53462151 54.24416526 -4.05719566 55.49364221 -4.5625 56.75 C-5.63567516 59.17630905 -6.73339594 61.34793201 -8.0625 63.625 C-10.013144 66.79208172 -10.013144 66.79208172 -10.9375 69.625 C-12.34845348 72.77889602 -14.53961009 74.5996196 -17 77 C-18.0064275 78.66279327 -19.00585407 80.32983484 -20 82 C-22.59398906 85.26459418 -25.32402443 88.34229404 -28.3125 91.25 C-30.23771233 92.99500355 -30.23771233 92.99500355 -31 96 C-31.66 96 -32.32 96 -33 96 C-33.25652344 97.02738281 -33.51304687 98.05476563 -33.77734375 99.11328125 C-37.60472059 112.44380374 -50.46109605 129.83962308 -61.57592773 137.85839844 C-65.28357819 142.6635194 -64.62265231 147.18000878 -64.48828125 153.08203125 C-64.48120651 154.25134689 -64.47413177 155.42066254 -64.46684265 156.62541199 C-64.43888494 160.3550958 -64.37613872 164.08327097 -64.3125 167.8125 C-64.28741915 170.34307726 -64.26460561 172.87367808 -64.24414062 175.40429688 C-64.18905346 181.60337813 -64.10541122 187.80158128 -64 194 C-64.66 194 -65.32 194 -66 194 C-69.31134651 184.02330845 -69.71953391 174.18532241 -69.83056641 163.75463867 C-69.8602259 161.87419446 -69.91498998 159.99398139 -69.99462891 158.11499023 C-70.69144858 141.64509801 -70.69144858 141.64509801 -66.69140625 136.48876953 C-64.05511857 133.67171129 -61.04819613 131.35829612 -58 129 C-55.93225692 126.77522366 -54.08651321 124.41727216 -52.25 122 C-51.79592773 121.40880371 -51.34185547 120.81760742 -50.87402344 120.20849609 C-44.47604454 111.78017066 -39.37083591 103.40742533 -35.65917969 93.48095703 C-33.67747973 88.50951768 -31.46907131 86.75751209 -27 84 C-25.02076837 82.01588051 -23.32482113 79.85010234 -21.625 77.625 C-20.91609619 76.70787231 -20.91609619 76.70787231 -20.19287109 75.7722168 C-15.46986849 69.52362841 -11.60634002 62.9409695 -8 56 C-7.51789062 55.08863281 -7.03578125 54.17726563 -6.5390625 53.23828125 C1.83793459 36.25582351 3.23170331 18.40916708 0 0 Z " fill="#ACADAC" transform="translate(653,401)"/>
<path d="M0 0 C0.66 0.33 1.32 0.66 2 1 C2.8515625 3.84375 2.8515625 3.84375 3.625 7.5 C4.01558594 9.27890625 4.01558594 9.27890625 4.4140625 11.09375 C5.52437477 18.49583182 5.04310053 25.51943786 3.8125 32.875 C3.61720703 34.04736206 3.61720703 34.04736206 3.41796875 35.2434082 C2.24210712 41.70730666 0.06954685 47.19302121 -3 53 C-3.53462151 54.24416526 -4.05719566 55.49364221 -4.5625 56.75 C-5.63567516 59.17630905 -6.73339594 61.34793201 -8.0625 63.625 C-10.013144 66.79208172 -10.013144 66.79208172 -10.9375 69.625 C-12.36447733 72.81471403 -14.38987628 74.71614175 -17 77 C-17.66 77 -18.32 77 -19 77 C-19.268125 77.58265625 -19.53625 78.1653125 -19.8125 78.765625 C-21.01480991 81.02786601 -22.33825913 82.80576318 -24 84.75 C-24.515625 85.36359375 -25.03125 85.9771875 -25.5625 86.609375 C-27 88 -27 88 -29 88 C-27.31077592 84.01964442 -24.59191588 80.93133135 -21.875 77.625 C-16.40346723 70.80669751 -12.02513034 63.74699744 -8 56 C-7.51789062 55.08863281 -7.03578125 54.17726563 -6.5390625 53.23828125 C1.83793459 36.25582351 3.23170331 18.40916708 0 0 Z " fill="#ACADAD" transform="translate(653,401)"/>
<path d="M0 0 C2.50037734 2.17424117 3.43628586 3.73045798 4 7 C4.66 7 5.32 7 6 7 C8.56348437 12.95759495 10.72911001 19.0089983 12.6875 25.1875 C12.90172607 25.85201172 13.11595215 26.51652344 13.33666992 27.20117188 C16.12117531 36.14177588 16.13526185 44.50937033 16.09765625 53.80859375 C16.09578833 55.14380337 16.0943662 56.47901369 16.09336853 57.81422424 C16.08957277 61.30762668 16.079768 64.80098673 16.06866455 68.29437256 C16.0583868 71.8674665 16.05385735 75.44056737 16.04882812 79.01367188 C16.03814275 86.00913186 16.02110215 93.00456389 16 100 C15.34 100 14.68 100 14 100 C13.98786972 98.99427444 13.98786972 98.99427444 13.97549438 97.9682312 C13.88876587 90.92639688 13.78924129 83.88482226 13.68261719 76.84326172 C13.64457031 74.22286373 13.6096773 71.60241783 13.578125 68.98193359 C13.53194233 65.1935118 13.47404058 61.40541313 13.4140625 57.6171875 C13.40251129 56.46451385 13.39096008 55.31184021 13.37905884 54.12423706 C13.17693423 42.72996178 12.02427806 31.52963726 8.1875 20.75 C7.92759277 19.99203125 7.66768555 19.2340625 7.39990234 18.453125 C5.60338111 13.34457527 3.50396834 8.49775397 0.8828125 3.75 C0 2 0 2 0 0 Z " fill="#AFAFAF" transform="translate(631,291)"/>
<path d="M0 0 C5.41110091 1.31978071 9.26441506 3.93285427 13 8 C13 8.66 13 9.32 13 10 C14.2065625 10.433125 14.2065625 10.433125 15.4375 10.875 C18 12 18 12 19 14 C19.99 14.33 20.98 14.66 22 15 C23.66196899 16.94901027 25.18446502 18.87352373 26.6875 20.9375 C27.10322266 21.48857422 27.51894531 22.03964844 27.94726562 22.60742188 C31 26.73287408 31 26.73287408 31 29 C31.66 29 32.32 29 33 29 C36 34.75 36 34.75 36 37 C36.66 37 37.32 37 38 37 C38 38.32 38 39.64 38 41 C38.66 41 39.32 41 40 41 C42.81849506 46.54891215 44.5326514 50.741346 44 57 C41.72600834 54.72600834 41.70914141 54.06094272 41.25 51 C40.08722133 45.23261778 37.17011159 40.8721308 34 36 C33.48566406 35.12214844 32.97132813 34.24429688 32.44140625 33.33984375 C31.04222154 31.0685385 29.49134455 29.4011644 27.5703125 27.56640625 C25.53801903 25.53916823 23.65495779 23.39722594 21.75 21.25 C15.44786609 14.22672639 9.18350595 7.53228488 1.43359375 2.09375 C0.96050781 1.7328125 0.48742187 1.371875 0 1 C0 0.67 0 0.34 0 0 Z " fill="#DADADA" transform="translate(737,657)"/>
<path d="M0 0 C0 3 0 3 -2.1875 5.375 C-5 8 -5 8 -7.64526367 9.90893555 C-11.28115485 14.6817731 -10.62115302 19.24586223 -10.48828125 25.08203125 C-10.48120651 26.25134689 -10.47413177 27.42066254 -10.46684265 28.62541199 C-10.43888494 32.3550958 -10.37613872 36.08327097 -10.3125 39.8125 C-10.28741915 42.34307726 -10.26460561 44.87367808 -10.24414062 47.40429688 C-10.18905346 53.60337813 -10.10541122 59.80158128 -10 66 C-10.66 66 -11.32 66 -12 66 C-13.62173354 59.1223616 -14.30365031 52.66689348 -14.22265625 45.609375 C-14.21423203 44.66112854 -14.2058078 43.71288208 -14.1971283 42.73590088 C-14.17364501 40.74930706 -14.14391487 38.76277793 -14.1081543 36.77636719 C-14.06240154 33.74347304 -14.06517428 30.71287426 -14.06835938 27.6796875 C-14.03944984 25.73953645 -14.00764949 23.79942586 -13.97265625 21.859375 C-13.98063736 20.95926697 -13.98861847 20.05915894 -13.99684143 19.1317749 C-13.80866662 12.98061673 -13.80866662 12.98061673 -11.47824097 10.15466309 C-9.71598328 8.64285905 -7.90252966 7.32756273 -6 6 C-4.27168958 4.38612703 -2.64836137 2.69684259 -1 1 C-0.67 0.67 -0.34 0.34 0 0 Z " fill="#C2C3C3" transform="translate(599,529)"/>
<path d="M0 0 C1.91626973 3.83253945 -0.53108173 8.39352698 -1.6875 12.3125 C-3.4854477 17.36387688 -6.08281113 21.53841703 -9 26 C-10.06750045 27.97626478 -11.03823956 29.96961685 -12 32 C-12.66 32 -13.32 32 -14 32 C-14.10828125 32.58910156 -14.2165625 33.17820312 -14.328125 33.78515625 C-15.48610611 37.60245445 -18.32891355 40.12344537 -21 43 C-21.7115625 43.7734375 -21.7115625 43.7734375 -22.4375 44.5625 C-23.57690848 45.75616603 -24.78356382 46.8849335 -26 48 C-26.66 48 -27.32 48 -28 48 C-28.28875 48.804375 -28.5775 49.60875 -28.875 50.4375 C-30 53 -30 53 -32 54 C-31.72165399 50.65984783 -31.40390082 49.34620071 -28.8125 47.125 C-27.884375 46.42375 -26.95625 45.7225 -26 45 C-22.4377129 41.27700822 -19.63097506 37.4248217 -17 33 C-16.360625 32.443125 -15.72125 31.88625 -15.0625 31.3125 C-12.35057685 28.27185889 -11.29567912 25.04664349 -9.9296875 21.2421875 C-9 19 -9 19 -7 17 C-5.9224487 14.321842 -4.90748974 11.65394329 -3.9375 8.9375 C-1.11993243 1.11993243 -1.11993243 1.11993243 0 0 Z " fill="#D1D1D1" transform="translate(654,443)"/>
<path d="M0 0 C22.2716059 1.85410561 43.91400816 12.97434064 61 27 C59.11669922 27.57202148 59.11669922 27.57202148 57 28 C55.1328125 26.84765625 55.1328125 26.84765625 53.125 25.0625 C37.98252437 12.69328166 18.78286338 5.7268133 0 1 C0 0.67 0 0.34 0 0 Z " fill="#E4E4E4" transform="translate(546,234)"/>
<path d="M0 0 C3.12971397 2.87906588 5.13739079 5.68601769 7.125 9.4375 C7.62257813 10.36433594 8.12015625 11.29117188 8.6328125 12.24609375 C10.97310782 16.96011719 12.65522941 21.82171291 14.26953125 26.8203125 C15.01265074 29.1294827 15.01265074 29.1294827 16.1875 31.8125 C18.33195073 40.22534518 16.94072298 49.4662987 16 58 C15.67 58 15.34 58 15 58 C14.97421875 56.97003906 14.9484375 55.94007813 14.921875 54.87890625 C14.27968937 36.8206464 10.34458001 19.34070346 0.91796875 3.70703125 C0 2 0 2 0 0 Z " fill="#BFBFBF" transform="translate(767,687)"/>
<path d="M0 0 C0.66 0.33 1.32 0.66 2 1 C2.8515625 3.84375 2.8515625 3.84375 3.625 7.5 C3.88539063 8.6859375 4.14578125 9.871875 4.4140625 11.09375 C5.52447107 18.49647382 5.04174472 25.5187762 3.8125 32.875 C3.68447998 33.65149902 3.55645996 34.42799805 3.42456055 35.22802734 C2.26460821 41.64878706 0.18476738 47.28504193 -3 53 C-5.52393169 47.95213662 -1.83845828 40.23231741 -0.4609375 34.921875 C2.67178225 22.67153805 2.17729463 12.40280331 0 0 Z " fill="#B1B2B1" transform="translate(653,401)"/>
<path d="M0 0 C0.33 0.99 0.66 1.98 1 3 C-0.24839573 4.41808059 -1.49879221 5.83439995 -2.75 7.25 C-3.44609375 8.03890625 -4.1421875 8.8278125 -4.859375 9.640625 C-6.25521975 11.17911082 -7.70264921 12.67274924 -9.203125 14.109375 C-11.22561639 15.96962116 -11.22561639 15.96962116 -12 19 C-12.66 19 -13.32 19 -14 19 C-14.20625 19.94875 -14.4125 20.8975 -14.625 21.875 C-16.08156321 27.09078149 -19.10544411 31.47611862 -22 36 C-23.47439524 33.05120952 -22.72883228 31.17862456 -22 28 C-21.09314652 25.94569927 -20.11057829 23.92346743 -19.0625 21.9375 C-16.81774123 17.65207742 -16.81774123 17.65207742 -15.0078125 13.17578125 C-14.67523437 12.45777344 -14.34265625 11.73976563 -14 11 C-12.32168365 10.60510204 -10.64185499 10.2148672 -8.953125 9.8671875 C-4.82187028 8.0329104 -2.46652116 3.64355406 0 0 Z " fill="#B6B7B7" transform="translate(634,478)"/>
<path d="M0 0 C2.50037734 2.17424117 3.43628586 3.73045798 4 7 C4.66 7 5.32 7 6 7 C8.56348437 12.95759495 10.72911001 19.0089983 12.6875 25.1875 C12.90172607 25.85201172 13.11595215 26.51652344 13.33666992 27.20117188 C15.39717563 33.81712803 16.1337258 40.02859705 16.0625 46.9375 C16.05347656 48.08089844 16.04445313 49.22429687 16.03515625 50.40234375 C16.02355469 51.25957031 16.01195312 52.11679687 16 53 C15.67 53 15.34 53 15 53 C14.67 50.03 14.34 47.06 14 44 C13.67 44 13.34 44 13 44 C12.88785156 42.79730469 12.88785156 42.79730469 12.7734375 41.5703125 C11.24010516 28.31149756 7.35136212 15.46661818 0.8828125 3.75 C0 2 0 2 0 0 Z " fill="#B9B9B9" transform="translate(631,291)"/>
<path d="M0 0 C2.6245415 2.38880424 4.30001279 4.96717102 6.125 8 C10.85791066 15.53870791 16.11408144 22.78525202 23 28.5 C26 31 26 31 27 34 C26.01 34 25.02 34 24 34 C24 33.34 24 32.68 24 32 C23.4225 31.7525 22.845 31.505 22.25 31.25 C19.67060021 29.81700012 17.93878408 28.21575324 16 26 C16 25.34 16 24.68 16 24 C15.34 24 14.68 24 14 24 C0 7.6981982 0 7.6981982 0 0 Z " fill="#DFE1E0" transform="translate(378,459)"/>
<path d="M0 0 C2.48972623 2.29820883 4.57332713 4.71031517 6.5625 7.4375 C9.40277188 11.28957357 12.4163812 14.96746668 15.5 18.625 C15.95060791 19.16310303 16.40121582 19.70120605 16.86547852 20.25561523 C20.06827914 24.03275897 23.4618998 27.53474304 27 31 C26.67 31.66 26.34 32.32 26 33 C20.75402966 28.71757524 16.31767794 24.20877317 12 19 C11.29101562 18.15566406 10.58203125 17.31132813 9.8515625 16.44140625 C6.52407219 12.39916622 3.74543384 8.98821956 2 4 C1.34 4 0.68 4 0 4 C0 2.68 0 1.36 0 0 Z " fill="#E0E2E0" transform="translate(412,509)"/>
<path d="M0 0 C0.66 0 1.32 0 2 0 C0.7885103 9.69191763 -6.00145429 19.52634522 -13 26 C-13.928125 26.928125 -14.85625 27.85625 -15.8125 28.8125 C-16.534375 29.534375 -17.25625 30.25625 -18 31 C-16.64296852 27.0750474 -14.87731225 24.39754321 -12.1875 21.25 C-6.82377209 14.71052738 -3.15764757 7.81102293 0 0 Z " fill="#D7D8D8" transform="translate(620,497)"/>
<path d="M0 0 C0.66 0 1.32 0 2 0 C1.34 1.65 0.68 3.3 0 5 C-0.66 5 -1.32 5 -2 5 C-2.10828125 5.58910156 -2.2165625 6.17820312 -2.328125 6.78515625 C-3.48610611 10.60245445 -6.32891355 13.12344537 -9 16 C-9.7115625 16.7734375 -9.7115625 16.7734375 -10.4375 17.5625 C-11.57690848 18.75616603 -12.78356382 19.8849335 -14 21 C-14.66 21 -15.32 21 -16 21 C-16.28875 21.804375 -16.5775 22.60875 -16.875 23.4375 C-18 26 -18 26 -20 27 C-19.72165399 23.65984783 -19.40390082 22.34620071 -16.8125 20.125 C-15.884375 19.42375 -14.95625 18.7225 -14 18 C-10.44060925 14.28003523 -7.61337868 10.43138124 -5 6 C-3.42318523 3.87736474 -1.78295269 1.96581963 0 0 Z " fill="#DBDBDB" transform="translate(642,470)"/>
<path d="M0 0 C9.07849735 1.49192089 16.04628057 7.2956486 23 13 C21.2578125 13.69140625 21.2578125 13.69140625 19 14 C16.9921875 12.77734375 16.9921875 12.77734375 14.875 10.9375 C10.76116866 7.52185634 6.51246628 4.80618324 1.87109375 2.1640625 C1.25363281 1.77992188 0.63617187 1.39578125 0 1 C0 0.67 0 0.34 0 0 Z " fill="#DEDEDE" transform="translate(584,248)"/>
<path d="M0 0 C2.50037734 2.17424117 3.43628586 3.73045798 4 7 C4.66 7 5.32 7 6 7 C6.69906942 8.59915881 7.38389468 10.20455045 8.0625 11.8125 C8.44535156 12.70582031 8.82820312 13.59914063 9.22265625 14.51953125 C10 17 10 17 9 20 C6.75232407 16.6284861 5.07945264 13.09930172 3.375 9.4375 C3.05015625 8.75236328 2.7253125 8.06722656 2.390625 7.36132812 C0 2.24358259 0 2.24358259 0 0 Z " fill="#C3C3C3" transform="translate(631,291)"/>
<path d="M0 0 C1.29315061 0.95632999 2.58446853 1.91513851 3.875 2.875 C4.59429688 3.40867187 5.31359375 3.94234375 6.0546875 4.4921875 C8 6 8 6 10 8 C10.125 10.625 10.125 10.625 10 13 C6.40523299 9.50794062 3.07973809 5.95966325 0 2 C0 1.34 0 0.68 0 0 Z " fill="#CFCFCF" transform="translate(757,674)"/>
<path d="M0 0 C0.66 0.33 1.32 0.66 2 1 C0.5489926 2.83913695 -0.91101659 4.6711753 -2.375 6.5 C-3.18710937 7.5209375 -3.99921875 8.541875 -4.8359375 9.59375 C-5.55007813 10.3878125 -6.26421875 11.181875 -7 12 C-7.66 12 -8.32 12 -9 12 C-7.55575365 8.76138697 -5.74227753 6.38030837 -3.375 3.75 C-2.74335937 3.04359375 -2.11171875 2.3371875 -1.4609375 1.609375 C-0.97882812 1.07828125 -0.49671875 0.5471875 0 0 Z " fill="#A4A5A5" transform="translate(633,477)"/>
<path d="M0 0 C4.59817352 1.45205479 4.59817352 1.45205479 6.375 3.875 C7.09806909 6.3334349 6.85178626 7.61499846 6 10 C3.25722422 6.80009492 1.3697164 3.99500618 0 0 Z " fill="#CECECE" transform="translate(625,282)"/>
<path d="M0 0 C1.1055189 0.93590504 2.20935453 1.87379858 3.3125 2.8125 C3.92738281 3.33457031 4.54226563 3.85664062 5.17578125 4.39453125 C6.85424679 5.87172469 8.43882034 7.40039131 10 9 C9.67 9.66 9.34 10.32 9 11 C1.33257403 5.03416856 1.33257403 5.03416856 0 0 Z " fill="#D9D9D9" transform="translate(429,531)"/>
<path d="M0 0 C0 3.44360632 -0.79591532 4.74795392 -2.5 7.6875 C-2.9640625 8.49574219 -3.428125 9.30398438 -3.90625 10.13671875 C-4.2671875 10.75160156 -4.628125 11.36648438 -5 12 C-6.43088528 9.13822943 -5.59991697 7.06624227 -5 4 C-4.34 4 -3.68 4 -3 4 C-1.36323743 2.0399719 -1.36323743 2.0399719 0 0 Z " fill="#B5B6B5" transform="translate(617,502)"/>
<path d="M0 0 C0.33 0 0.66 0 1 0 C1.08114106 1.77007714 1.13925505 3.54122098 1.1875 5.3125 C1.23970703 6.79169922 1.23970703 6.79169922 1.29296875 8.30078125 C1 11 1 11 -0.51171875 12.85546875 C-1.00285156 13.23316406 -1.49398437 13.61085938 -2 14 C-1.85795259 12.41632253 -1.71119847 10.83306682 -1.5625 9.25 C-1.48128906 8.36828125 -1.40007813 7.4865625 -1.31640625 6.578125 C-1.03761535 4.30649548 -0.61209423 2.20148177 0 0 Z " fill="#A9ABAA" transform="translate(655,426)"/>
<path d="M0 0 C1 3 1 3 -0.3125 6.625 C-2 10 -2 10 -4 11 C-3.39301257 6.87248551 -1.96189209 3.6678852 0 0 Z " fill="#A2A4A3" transform="translate(649,449)"/>
<path d="M0 0 C0.66 0.33 1.32 0.66 2 1 C1.071875 1.3403125 1.071875 1.3403125 0.125 1.6875 C-2.62260139 3.38454792 -2.93210179 5.02514071 -4 8 C-4.99 8.495 -4.99 8.495 -6 9 C-5.69381595 5.32579134 -5.24228216 4.21864487 -2.4375 1.6875 C-1.633125 1.130625 -0.82875 0.57375 0 0 Z " fill="#E1E2E1" transform="translate(628,488)"/>
<path d="M0 0 C0.75 1.625 0.75 1.625 1 4 C-0.9375 7.25 -0.9375 7.25 -3 10 C-4 7 -4 7 -3.22265625 5.17578125 C-2.1484375 3.45052083 -1.07421875 1.72526042 0 0 Z " fill="#A2A3A3" transform="translate(617,498)"/>
<path d="M0 0 C0.66 0.33 1.32 0.66 2 1 C-2.75 5.875 -2.75 5.875 -5 7 C-5.33 6.01 -5.66 5.02 -6 4 C-5.38125 3.896875 -4.7625 3.79375 -4.125 3.6875 C-1.63473516 3.12474627 -1.63473516 3.12474627 0 0 Z " fill="#B1B1B1" transform="translate(602,524)"/>
</svg>
