<?xml version="1.0" encoding="UTF-8"?>
<svg version="1.1" xmlns="http://www.w3.org/2000/svg" width="1024" height="1024">
<path d="M0 0 C337.92 0 675.84 0 1024 0 C1024 337.92 1024 675.84 1024 1024 C686.08 1024 348.16 1024 0 1024 C0 686.08 0 348.16 0 0 Z " fill="#DFE0E2" transform="translate(0,0)"/>
<path d="M0 0 C0.8353125 0.2784375 1.670625 0.556875 2.53125 0.84375 C18.80646807 6.67067993 32.20917756 19.75637825 40 35 C46.15326558 48.946399 47.29705277 62.17183762 47.125 77.1875 C47.11494397 78.72720768 47.10582279 80.26692176 47.09765625 81.80664062 C47.07586468 85.53789587 47.04148142 89.26890554 47 93 C48.92078369 92.96072388 48.92078369 92.96072388 50.88037109 92.9206543 C55.66990413 92.82957206 60.45936194 92.77254097 65.24951172 92.7253418 C67.31539826 92.70032911 69.38119748 92.66630764 71.44677734 92.62280273 C74.43088424 92.56156442 77.41381287 92.5336574 80.3984375 92.51171875 C81.76468765 92.47300911 81.76468765 92.47300911 83.15853882 92.43351746 C91.80401712 92.42980788 98.54908084 95.51706835 104.875 101.375 C110.43169688 107.04338928 112.59521937 113.00235692 113.58520508 120.66601562 C113.76262222 121.90489407 113.76262222 121.90489407 113.94362354 123.16880035 C114.3120534 125.77726151 114.65818589 128.38792933 115 131 C115.22103625 132.63827905 115.44217516 134.27654425 115.66342163 135.91479492 C116.34769123 141.05449964 116.99287092 146.19885398 117.63671875 151.34375 C117.87924613 153.26260815 118.12209831 155.18142528 118.36524963 157.10020447 C118.87734015 161.14409215 119.38796516 165.18816058 119.89733887 169.23239136 C121.23443597 179.84478509 122.58283655 190.45574357 123.93359375 201.06640625 C124.06706837 202.1152556 124.20054298 203.16410496 124.33806229 204.24473763 C126.55538266 221.65472018 128.85942217 239.05042834 131.25 256.4375 C133.88844787 275.68318429 136.47165276 294.93513122 138.95300293 314.20169067 C139.31195583 316.98736737 139.67439334 319.77255263 140.04016113 322.55734253 C140.54603725 326.41080588 141.03927438 330.26582979 141.53125 334.12109375 C141.75557709 335.81383423 141.75557709 335.81383423 141.98443604 337.54077148 C143.51711604 349.74536919 144.61070674 359.96018728 137.33984375 370.37890625 C132.08728716 376.9257273 125.56880838 381.09081818 117.14699376 382.46579111 C114.1053468 382.64187206 111.09873217 382.67182874 108.05213928 382.64164734 C106.89964563 382.65015286 105.74715198 382.65865838 104.55973428 382.66742164 C100.72448263 382.68958396 96.89021107 382.67628558 93.05493164 382.6628418 C90.29446623 382.66851959 87.53404645 382.68161554 84.77360535 382.69425964 C78.06999963 382.72026696 71.36666282 382.71928206 64.66302592 382.70822146 C59.21142068 382.69964208 53.75989289 382.70051029 48.30828667 382.70801735 C47.53058986 382.70907224 46.75289306 382.71012713 45.95162968 382.71121398 C44.37144131 382.71338504 42.79125296 382.71557182 41.21106463 382.71777413 C26.41356202 382.73717728 11.61620989 382.72523175 -3.18128038 382.70298818 C-15.85948615 382.68474077 -28.53740062 382.69564127 -41.21557617 382.72729492 C-55.96076884 382.76410755 -70.70577969 382.78106167 -85.45101839 382.76788265 C-87.02550254 382.76654163 -88.59998671 382.76523265 -90.1744709 382.76395607 C-90.94901659 382.7633254 -91.72356227 382.76269474 -92.52157904 382.76204496 C-97.96184401 382.75902545 -103.4019711 382.77024366 -108.84220695 382.78720665 C-115.47911851 382.80759038 -122.1156193 382.80657302 -128.75250977 382.77857425 C-132.1346554 382.76485698 -135.51549917 382.76376944 -138.89770889 382.78252411 C-142.57420592 382.80125371 -146.24875475 382.78274247 -149.92515564 382.75517273 C-150.97994564 382.76923918 -152.03473565 382.78330563 -153.12148899 382.79779834 C-162.07079765 382.66321496 -169.83398132 379.79255283 -176.51337951 373.71193427 C-182.61026341 367.31658014 -185.42822884 361.25922922 -185.3125 352.3125 C-185.30863281 351.02988281 -185.30476563 349.74726562 -185.30078125 348.42578125 C-185.151834 345.0404451 -184.65935211 341.79644296 -184.06713867 338.46118164 C-183.03373927 332.38951009 -182.29106974 326.31661192 -181.625 320.1953125 C-180.00203929 305.73271042 -178.14215785 291.30362367 -176.26037598 276.87280273 C-175.48361727 270.91291851 -174.7109247 264.95250505 -173.9375 258.9921875 C-173.77000244 257.70431335 -173.60250488 256.41643921 -173.42993164 255.08953857 C-172.54994987 248.3082034 -171.690247 241.5249804 -170.85792542 234.73764038 C-169.70410648 225.33325606 -168.43372953 215.95390322 -167.06640625 206.578125 C-165.56738547 196.26931946 -164.21462132 185.95067835 -162.96484375 175.609375 C-162.8811919 174.91844254 -162.79754005 174.22751007 -162.7113533 173.51564026 C-161.94245734 167.15786581 -161.18118118 160.79918764 -160.42456055 154.43994141 C-154.75918698 106.8905296 -154.75918698 106.8905296 -142.875 97.5 C-136.58655685 93.01198248 -131.19080295 92.72367145 -123.66796875 92.8046875 C-122.18034782 92.80893234 -122.18034782 92.80893234 -120.66267395 92.81326294 C-117.50415841 92.82443196 -114.34592943 92.84953073 -111.1875 92.875 C-109.04232181 92.88503403 -106.89713917 92.89415914 -104.75195312 92.90234375 C-99.50120479 92.92436055 -94.25062287 92.95780557 -89 93 C-89.0314209 91.48986328 -89.0314209 91.48986328 -89.06347656 89.94921875 C-89.13712608 86.13231233 -89.18224209 82.31546518 -89.21972656 78.49804688 C-89.23956301 76.86121993 -89.26664112 75.22446105 -89.30175781 73.58789062 C-89.77630901 50.86526276 -83.97827375 32.6555157 -67.984375 15.88671875 C-50.3544164 -0.92703807 -23.27849768 -8.7672264 0 0 Z " fill="#FEFEFE" transform="translate(533,322)"/>
<path d="M0 0 C0.78246094 0.350625 1.56492187 0.70125 2.37109375 1.0625 C15.65653749 7.69370935 25.13742042 19.6463465 31 33 C34 44 34 44 34 80 C-2.96 80 -39.92 80 -78 80 C-78 28.78667663 -78 28.78667663 -60.01953125 10.73046875 C-44.07406171 -4.2638125 -20.10896236 -9.44841508 0 0 Z " fill="#DADBDD" transform="translate(534,335)"/>
</svg>
