<?xml version="1.0" encoding="UTF-8"?>
<svg version="1.1" xmlns="http://www.w3.org/2000/svg" width="1024" height="1024">
<path d="M0 0 C337.92 0 675.84 0 1024 0 C1024 337.92 1024 675.84 1024 1024 C686.08 1024 348.16 1024 0 1024 C0 686.08 0 348.16 0 0 Z " fill="#F2F2F2" transform="translate(0,0)"/>
<path d="M0 0 C1.16801147 -0.01906403 2.33602295 -0.03812805 3.53942871 -0.05776978 C5.42546814 -0.05503555 5.42546814 -0.05503555 7.34960938 -0.05224609 C8.64402954 -0.06081635 9.93844971 -0.0693866 11.27209473 -0.07821655 C14.00920005 -0.09312109 16.74578933 -0.09257324 19.48291016 -0.08203125 C22.98747608 -0.07043111 26.48993147 -0.10432875 29.99414825 -0.1507206 C33.34189074 -0.18729657 36.6891681 -0.1798248 40.03710938 -0.17724609 C41.29446899 -0.19566559 42.55182861 -0.21408508 43.84729004 -0.23306274 C45.01530151 -0.22060516 46.18331299 -0.20814758 47.38671875 -0.1953125 C48.92749084 -0.19720078 48.92749084 -0.19720078 50.49938965 -0.1991272 C53.69786857 0.68948007 54.48531708 1.91737511 56.20982218 4.66284811 C58.06866094 8.22818391 59.10510747 12.03290093 60.20898438 15.88525391 C60.6000235 17.20428207 60.6000235 17.20428207 60.9989624 18.54995728 C61.82334224 21.33869472 62.63353085 24.1313228 63.44335938 26.92431641 C64.0023206 28.82433119 64.56220687 30.7240741 65.12304688 32.62353516 C66.49054236 37.26238455 67.84533245 41.90477398 69.19335938 46.54931641 C70.03681816 46.54964246 70.03681816 46.54964246 70.89731652 46.5499751 C104.22447481 46.56349108 137.55148926 46.60297276 170.87856824 46.67617203 C174.88022673 46.68493877 178.88188567 46.69348858 182.88354492 46.7019043 C183.68020289 46.70358336 184.47686086 46.70526242 185.29765999 46.70699237 C198.19689114 46.73366187 211.09607785 46.74275741 223.99533374 46.74535783 C237.23126495 46.74841733 250.46706769 46.77036359 263.70294088 46.80984098 C271.87017841 46.8336054 280.03715947 46.84263952 288.20442682 46.83282951 C294.46722848 46.82688513 300.72969416 46.84721872 306.9924202 46.87737656 C309.56149561 46.88562874 312.13061467 46.88533768 314.69968605 46.87591362 C318.20538744 46.86432566 321.70963686 46.88336113 325.21522522 46.91007996 C326.23371852 46.8994067 327.25221183 46.88873344 328.30156857 46.87773675 C334.91756366 46.97192063 338.21033867 48.14711857 343.19335938 52.54931641 C346.79902574 56.50391822 346.46701845 60.41659458 346.40991211 65.5078125 C346.05547778 70.48587665 344.70689479 75.04297094 343.25585938 79.79931641 C342.79203857 81.38595093 342.79203857 81.38595093 342.31884766 83.00463867 C341.64687142 85.29947899 340.96857961 87.59247743 340.28466797 89.88378906 C338.93882271 94.40426349 337.624813 98.93355361 336.31330872 103.46408081 C336.02274849 104.46775192 336.02274849 104.46775192 335.72631836 105.49169922 C335.53351288 106.15770142 335.3407074 106.82370361 335.14205933 107.5098877 C334.59022153 109.41148101 334.0345689 111.311966 333.47875977 113.21240234 C331.52836779 119.88654531 329.6229439 126.56983637 327.77148438 133.27197266 C325.34164339 142.06533157 322.82447531 150.83209575 320.28125 159.59326172 C319.56070722 162.07567966 318.84176872 164.55855821 318.12304688 167.04150391 C317.21285852 170.18549569 316.29745243 173.32789359 315.37817383 176.46923828 C314.66827894 178.89837878 313.97985542 181.32887472 313.3112793 183.77001953 C312.07387323 188.21437987 311.01074208 191.62770252 307.75585938 195.04931641 C307.17964844 195.67837891 306.6034375 196.30744141 306.00976562 196.95556641 C301.74275143 200.69952724 297.86172311 200.83305109 292.34735107 200.78982544 C291.55172422 200.79153429 290.75609736 200.79324314 289.9363606 200.79500377 C287.26770375 200.79830064 284.59929778 200.78729175 281.93066406 200.77636719 C280.01876837 200.77580312 278.10687225 200.77611955 276.19497681 200.7772522 C271.00112661 200.77782687 265.80736847 200.766054 260.6135397 200.75210428 C255.18696495 200.73961602 249.76038817 200.73842793 244.33380127 200.73605347 C234.05620038 200.7298331 223.77864195 200.71341473 213.50105977 200.69335449 C201.80107463 200.67101282 190.10108748 200.66000642 178.40108633 200.64996362 C154.33182045 200.629049 130.26259229 200.59386219 106.19335938 200.54931641 C105.89389404 201.32193817 105.59442871 202.09455994 105.28588867 202.89059448 C104.11345309 205.74377215 102.67304809 208.15085332 101.00585938 210.74462891 C100.08160156 212.18902344 100.08160156 212.18902344 99.13867188 213.66259766 C98.49671875 214.65646484 97.85476563 215.65033203 97.19335938 216.67431641 C96.55140625 217.67591797 95.90945313 218.67751953 95.24804688 219.70947266 C92.91945448 223.33876415 90.58530279 226.96140129 88.19335938 230.54931641 C89.24526553 230.54986117 90.29717169 230.55040594 91.38095379 230.55096722 C116.96083923 230.56535434 142.54055433 230.60833655 168.1203413 230.68140697 C180.49048528 230.7160792 192.86051756 230.74141544 205.23071289 230.74487305 C216.01095417 230.74790982 226.79099663 230.76836182 237.57116109 230.80984098 C243.2807032 230.83119853 248.98996247 230.84375735 254.69954491 230.8354702 C260.07176468 230.82794765 265.44341053 230.84368004 270.81552505 230.87737656 C272.78879034 230.88563146 274.76211248 230.88533443 276.73537254 230.87591362 C279.42742674 230.8643319 282.11758736 230.8833475 284.80949402 230.91007996 C285.59257421 230.8994067 286.37565441 230.88873344 287.1824643 230.87773675 C291.20220294 230.95234446 293.01669243 231.4109197 296.22125721 233.92129993 C298.19335938 236.54931641 298.19335938 236.54931641 298.13085938 239.23681641 C297.19335938 241.54931641 297.19335938 241.54931641 295.19335938 243.54931641 C292.29226951 243.75382501 289.48585239 243.83169918 286.58302307 243.82347107 C285.22993724 243.83132609 285.22993724 243.83132609 283.84951633 243.83933979 C280.80856901 243.85441418 277.76778885 243.85504657 274.72680664 243.85571289 C272.55406406 243.86332932 270.38132419 243.87175591 268.20858765 243.88093567 C262.29339889 243.90293706 256.37826184 243.911687 250.46303678 243.91676211 C246.7714172 243.92039868 243.07981132 243.92663502 239.38819695 243.9337635 C226.52075476 243.95827646 213.65335301 243.97131413 200.78588867 243.97485352 C188.77293412 243.97849144 176.76026857 244.00840057 164.74738842 244.0502581 C154.44843906 244.08489153 144.14957452 244.10040074 133.85056728 244.10109955 C127.69284431 244.10189467 121.53538102 244.11074075 115.37771797 244.13909721 C109.58860168 244.16515924 103.79996254 244.16754957 98.01081467 244.15144157 C95.88187436 244.14961767 93.75290736 244.15640193 91.62402534 244.17226028 C88.72566911 244.19254027 85.82901101 244.18227616 82.93067932 244.16404724 C82.08088251 244.17724721 81.2310857 244.19044718 80.35553747 244.20404714 C78.00835514 244.17014217 78.00835514 244.17014217 74.19335938 243.54931641 C71.74430256 240.73040523 71.17832302 239.40060547 71.24414062 235.67431641 C72.3965729 231.88030067 74.21635052 228.82810902 76.38085938 225.54931641 C76.81140625 224.87868164 77.24195313 224.20804688 77.68554688 223.51708984 C78.64428042 222.02460758 79.60724953 220.53484032 80.57373047 219.04736328 C83.00393559 215.29911806 85.40394033 211.53178624 87.80395508 207.76416016 C89.04818434 205.81172183 90.29534533 203.86114823 91.5456543 201.91259766 C92.12033447 201.01412109 92.69501465 200.11564453 93.28710938 199.18994141 C93.79951172 198.39104492 94.31191406 197.59214844 94.83984375 196.76904297 C98.16425341 191.31710707 98.4574651 187.87100052 97.19335938 181.54931641 C96.04371894 177.18961339 94.69714584 172.90384523 93.31835938 168.61181641 C92.6123757 166.37361542 91.90664293 164.13533527 91.20117188 161.89697266 C90.85989258 160.82205566 90.51861328 159.74713867 90.16699219 158.63964844 C88.43992054 153.15788491 86.7940377 147.65409327 85.21679688 142.12744141 C83.79883729 137.16999492 82.3111877 132.23465834 80.81835938 127.29931641 C80.52703125 126.32607422 80.23570312 125.35283203 79.93554688 124.35009766 C78.15870792 118.48185322 76.18664932 112.72770845 74.05908203 106.97802734 C73.04031211 104.11995537 72.25347643 101.25439959 71.56835938 98.29931641 C71.21064453 96.80658203 71.21064453 96.80658203 70.84570312 95.28369141 C70.63042969 94.38134766 70.41515625 93.47900391 70.19335938 92.54931641 C69.0481764 87.99415907 69.0481764 87.99415907 67.21679688 83.68603516 C66.05655109 81.26368995 65.48267845 78.97954478 64.88085938 76.36181641 C63.60859608 71.08452018 62.16795609 65.87901051 60.63085938 60.67431641 C60.42098389 59.96122314 60.2111084 59.24812988 59.99487305 58.51342773 C59.12711247 55.59060713 58.23900285 52.68524697 57.26831055 49.79443359 C56.05417039 46.12912564 54.92561079 42.44090817 53.81054688 38.74462891 C53.59141632 38.02064911 53.37228577 37.29666931 53.14651489 36.55075073 C52.45300795 34.25884356 51.76066544 31.96658658 51.06835938 29.67431641 C50.59578028 28.11179307 50.1231248 26.54929283 49.65039062 24.98681641 C48.4971633 21.174583 47.34497951 17.36203562 46.19335938 13.54931641 C45.54856125 13.54122955 44.90376312 13.5331427 44.23942566 13.52481079 C37.53986588 13.4388807 30.84060593 13.33938227 24.14135742 13.23193359 C21.63978096 13.19360521 19.13814866 13.15875923 16.63647461 13.12744141 C13.04455581 13.08187494 9.45302276 13.02386617 5.86132812 12.96337891 C4.17839912 12.94605209 4.17839912 12.94605209 2.46147156 12.92837524 C1.42061905 12.90850555 0.37976654 12.88863586 -0.69262695 12.86816406 C-1.60973953 12.85484039 -2.52685211 12.84151672 -3.47175598 12.82778931 C-5.80664062 12.54931641 -5.80664062 12.54931641 -8.80664062 10.54931641 C-9.74414062 7.67431641 -9.74414062 7.67431641 -9.80664062 4.54931641 C-6.87558237 0.67101522 -4.76899217 0.04278234 0 0 Z " fill="#FEFEFE" transform="translate(332.806640625,364.45068359375)"/>
<path d="M0 0 C4.93727303 4.51824248 8.52879077 9.02759658 9.3359375 15.83203125 C9.44244394 23.95847287 8.59487158 29.23075032 2.90625 35.1953125 C-3.85582788 41.48404493 -8.74565515 43.5013926 -18 43.30859375 C-24.84985601 42.60398617 -29.89704994 39.0106099 -34.51953125 34.0390625 C-38.99700427 27.87219993 -39.55836977 20.91081675 -38.5625 13.53515625 C-36.91218029 6.09725701 -32.14801666 1.29201163 -26 -3 C-16.63518246 -6.91619643 -8.2762188 -5.68136472 0 0 Z " fill="#FCFDFC" transform="translate(601,623)"/>
<path d="M0 0 C5.64738052 4.25712323 10.33328698 8.32472474 13 15 C13.92278117 21.78515568 13.71282561 29.07423198 10 35 C4.59723581 41.57219367 -0.18347227 45.04565894 -8.828125 45.890625 C-15.92330794 46.24793637 -20.64113348 45.37158378 -26.20703125 40.75 C-32.18046154 34.91972381 -34.13469232 29.86949906 -34.25 21.625 C-34.19389583 16.5980664 -33.99384312 13.19138037 -31 9 C-30.60941406 8.41734375 -30.21882813 7.8346875 -29.81640625 7.234375 C-22.81328987 -2.20892074 -10.60816084 -4.57248312 0 0 Z " fill="#FDFDFD" transform="translate(470,620)"/>
<path d="M0 0 C2.46800047 1.15173355 4.04783565 2.04783565 6 4 C5.69690596 8.09176955 5.12300942 11.46165096 3 15 C2.01 12.03 2.01 12.03 1 9 C0.814375 10.918125 0.814375 10.918125 0.625 12.875 C0.25 16.75 0.25 16.75 -2 19 C-2.38887467 21.23124456 -2.38887467 21.23124456 -2.5 23.75 C-2.90400696 28.67604982 -4.08306761 32.73823343 -5.9375 37.3125 C-8.51663735 43.83620035 -10.50654749 49.96830177 -11 57 C-10.67 57.66 -10.34 58.32 -10 59 C-10.9590625 59.495 -10.9590625 59.495 -11.9375 60 C-14.92763799 62.89952775 -14.72162168 66.05630719 -15 70 C-15.54559353 73.42944503 -16.41878248 75.93057776 -18 79 C-19.28482489 82.28344139 -20.00697914 84.64406385 -19.9375 88.1875 C-20 91 -20 91 -21.375 92.5 C-21.91125 92.995 -22.4475 93.49 -23 94 C-25.10286324 98.82421566 -25.69207318 103.92625769 -26.4375 109.09765625 C-27.12189617 112.62895039 -28.26549258 115.66870531 -30 118.8125 C-31.17528904 121.16855278 -31.17528904 121.16855278 -31.75 124.625 C-33.19021108 130.54094397 -35.92356016 136.88894582 -41.06640625 140.41796875 C-43.1875 141.4375 -43.1875 141.4375 -45.16796875 142.18359375 C-47.2693261 143.12001952 -48.47202471 144.30172405 -50 146 C-47.525 145.01 -47.525 145.01 -45 144 C-46.60760812 146.33833908 -47.87722912 148.17441704 -50 150 C-54.53930665 150.63709567 -57.02672384 149.98663808 -61 148 C-63.68993053 148.30378052 -63.68993053 148.30378052 -66 149 C-65.3125 147.0625 -65.3125 147.0625 -64 145 C-60.37589626 143.79196542 -56.79332445 143.91178315 -53 144 C-53 143.34 -53 142.68 -53 142 C-52.34773437 141.79246094 -51.69546875 141.58492187 -51.0234375 141.37109375 C-44.64362935 139.12216433 -40.44737942 136.91493084 -37 131 C-36.3186131 129.12410651 -35.70537749 127.22283489 -35.140625 125.30859375 C-34.79789551 124.15415771 -34.45516602 122.99972168 -34.10205078 121.81030273 C-33.73837402 120.55290283 -33.37469727 119.29550293 -33 118 C-32.8106488 117.34782501 -32.62129761 116.69565002 -32.4262085 116.02371216 C-30.97521624 111.02069389 -29.5483494 106.01093959 -28.125 101 C-27.71236713 99.55074493 -27.29960699 98.10152609 -26.88671875 96.65234375 C-26.03797607 93.67294006 -25.18995121 90.69333321 -24.34228516 87.71362305 C-22.93015835 82.751933 -21.51196352 77.79198423 -20.09375 72.83203125 C-17.1230431 62.43809509 -14.16054701 52.04185579 -11.21289062 41.64135742 C-10.65167998 39.66289366 -10.08949642 37.68470564 -9.52636719 35.70678711 C-6.15097396 23.84911246 -2.88712089 11.98707468 0 0 Z " fill="#A2A3A3" transform="translate(680,424)"/>
<path d="M0 0 C1.98 1.98 1.98 1.98 4 4 C3.34 5.98 2.68 7.96 2 10 C1.01 9.01 1.01 9.01 0 8 C-0.97689443 8.48742046 -1.95378885 8.97484093 -2.96028614 9.47703171 C-7.2375179 11.29818702 -11.03616846 11.4150937 -15.63542175 11.36749268 C-16.47979225 11.37076152 -17.32416275 11.37403036 -18.19412023 11.37739825 C-21.01005144 11.38465364 -23.82545834 11.37054628 -26.64135742 11.35644531 C-28.6654316 11.35723653 -30.68950563 11.35933484 -32.71357727 11.36264038 C-38.20093236 11.36776807 -43.68809945 11.35425242 -49.17542434 11.33711338 C-54.91775154 11.3220657 -60.66007643 11.32325116 -66.40242004 11.32244873 C-76.04199428 11.31875814 -85.68149721 11.30379962 -95.32104492 11.28125 C-107.69969418 11.25235211 -120.07828612 11.24202403 -132.45696545 11.2375679 C-143.09597229 11.23358993 -153.73496665 11.22108976 -164.37396455 11.20722103 C-167.79620158 11.20312113 -171.21843816 11.20019601 -174.6406765 11.19742584 C-180.01277686 11.19253544 -185.38484242 11.18233636 -190.75692558 11.16798782 C-192.73063086 11.16346267 -194.70434081 11.16062565 -196.67805099 11.15958023 C-199.36724543 11.15783604 -202.05635263 11.14995715 -204.74552917 11.14044189 C-205.92319289 11.14174162 -205.92319289 11.14174162 -207.1246478 11.1430676 C-210.58838398 11.12462026 -213.66736795 10.92627644 -217 10 C-217 10.66 -217 11.32 -217 12 C-218.75 12.75 -218.75 12.75 -221 13 C-223.25 11.0625 -223.25 11.0625 -225 9 C-224.67 8.34 -224.34 7.68 -224 7 C-151.07 7 -78.14 7 -3 7 C-2.01 4.69 -1.02 2.38 0 0 Z " fill="#DDDEDE" transform="translate(631,600)"/>
<path d="M0 0 C1.42723475 -0.02105629 2.85503498 -0.01418473 4.28214741 0.01396656 C5.06875274 0.00969444 5.85535806 0.00542231 6.66579992 0.00102073 C9.31040569 -0.00723718 11.95343711 0.02032039 14.59789753 0.04761219 C16.48994122 0.04902206 18.38198764 0.04823187 20.27402973 0.04539967 C25.4185544 0.04396173 30.56249931 0.07341265 35.70688891 0.10826945 C41.0800594 0.13947009 46.45324235 0.14245872 51.82648945 0.14839649 C62.0050671 0.16395345 72.18337709 0.20500704 82.36183673 0.25514394 C93.94810514 0.31097975 105.53438615 0.33850941 117.12075555 0.36362112 C140.95809271 0.41592122 164.79519205 0.50389954 188.63232136 0.61523914 C188.63232136 0.94523914 188.63232136 1.27523914 188.63232136 1.61523914 C187.66195312 1.61578391 186.69158489 1.61632868 185.69181156 1.61688995 C162.09842724 1.63127492 138.50522764 1.67424806 114.91195011 1.74732971 C103.50247521 1.78200699 92.09312148 1.80733883 80.68359089 1.81079578 C70.7409289 1.81383187 60.79848253 1.83427441 50.85590386 1.87576371 C45.58960523 1.89712769 40.3236134 1.90967687 35.057271 1.90139294 C30.10280996 1.89387432 25.14897171 1.90958619 20.1946249 1.94329929 C18.37413398 1.95155905 16.55358143 1.95125148 14.73309612 1.94183636 C12.25082759 1.93026724 9.77061821 1.94924902 7.28851032 1.97600269 C6.20290353 1.9599928 6.20290353 1.9599928 5.09536529 1.94365948 C1.34298442 2.01933849 -0.08275412 2.32997836 -2.7797842 5.03019142 C-4.11215887 7.19926011 -5.28894543 9.31394162 -6.36767864 11.61523914 C-7.86767864 14.11523914 -7.86767864 14.11523914 -9.36767864 16.61523914 C-10.51792588 18.78041042 -11.42070511 20.77839751 -12.18017864 23.11523914 C-13.36767864 25.61523914 -13.36767864 25.61523914 -18.36767864 29.61523914 C-12.75767864 29.94523914 -7.14767864 30.27523914 -1.36767864 30.61523914 C-1.36767864 30.94523914 -1.36767864 31.27523914 -1.36767864 31.61523914 C-8.29767864 31.61523914 -15.22767864 31.61523914 -22.36767864 31.61523914 C-16.74566235 21.49560983 -16.74566235 21.49560983 -14.57861614 18.19336414 C-14.11197552 17.47793446 -13.64533489 16.76250477 -13.16455364 16.02539539 C-12.69533489 15.31254383 -12.22611614 14.59969227 -11.74267864 13.86523914 C-10.79139962 12.41261037 -9.84085872 10.95949792 -8.89111614 9.50586414 C-8.27115765 8.56275379 -8.27115765 8.56275379 -7.63867474 7.60059071 C-6.26897939 5.5821237 -6.26897939 5.5821237 -5.26635551 3.02873421 C-3.36767864 0.61523914 -3.36767864 0.61523914 0 0 Z " fill="#EDECED" transform="translate(442.36767864227295,564.3847608566284)"/>
<path d="M0 0 C72.27 0 144.54 0 219 0 C215.21641424 2.5223905 212.22701751 2.27576242 207.84559631 2.24723816 C206.58416712 2.25085978 206.58416712 2.25085978 205.2972545 2.25455457 C202.46900626 2.26020681 199.64098236 2.2515169 196.81274414 2.24291992 C194.78926024 2.24399243 192.76577664 2.24593065 190.74229431 2.24867249 C185.23821649 2.25352921 179.73421947 2.24585455 174.23015141 2.23571944 C168.47711987 2.22695095 162.72409094 2.22869616 156.97105408 2.2290802 C147.30759322 2.22814292 137.64416372 2.2194508 127.98071289 2.20581055 C116.80118109 2.1900888 105.62168365 2.18481226 94.44214159 2.1855461 C83.69881847 2.18615612 72.95550657 2.18105273 62.21218681 2.17275429 C57.6353185 2.16921973 53.05845416 2.16739079 48.48158455 2.16686058 C43.09312618 2.16585722 37.70469676 2.15976106 32.31624794 2.14969444 C30.33609443 2.14676951 28.3559376 2.14554406 26.37578201 2.14612198 C23.67761952 2.14661152 20.97953849 2.14096822 18.28138733 2.13371277 C17.09963089 2.13603567 17.09963089 2.13603567 15.89400059 2.1384055 C12.42334075 2.12294184 9.33919458 1.92879648 6 1 C6 1.66 6 2.32 6 3 C2.25 4.125 2.25 4.125 0 3 C0 2.01 0 1.02 0 0 Z " fill="#919292" transform="translate(408,609)"/>
<path d="M0 0 C3.5811348 3.21383892 5.66792338 5.12954296 6 10 C6.05027344 10.70640625 6.10054687 11.4128125 6.15234375 12.140625 C6.35513987 17.04017933 6.00920454 19.94914773 3 24 C2.70480469 24.62261719 2.40960937 25.24523437 2.10546875 25.88671875 C-0.66679372 31.18634417 -5.8386676 37.0506672 -11 40 C-14.03207464 40.30782484 -16.96513747 40.23802843 -20 40 C-20.33 40.99 -20.66 41.98 -21 43 C-22.98 41.68 -24.96 40.36 -27 39 C-27 39.99 -27 40.98 -27 42 C-27.66 42 -28.32 42 -29 42 C-29 41.34 -29 40.68 -29 40 C-29.66 40 -30.32 40 -31 40 C-34.04395069 37.26044438 -36.44396229 34.81936528 -38 31 C-37.484375 31.268125 -36.96875 31.53625 -36.4375 31.8125 C-35.633125 32.204375 -34.82875 32.59625 -34 33 C-33.01 33.53625 -32.02 34.0725 -31 34.625 C-25.27244074 37.02687969 -18.6435839 36.98191498 -12.6953125 35.37890625 C-6.55364554 32.69043336 -1.77181293 27.58469437 1.1796875 21.61328125 C3.37746607 14.61178666 2.47478107 6.80564793 0 0 Z " fill="#A0A1A1" transform="translate(607,629)"/>
<path d="M0 0 C0.66 0.33 1.32 0.66 2 1 C2 1.66 2 2.32 2 3 C2.66 3 3.32 3 4 3 C5.41560488 9.92073497 6.05723338 17.91242518 2.8046875 24.375 C-0.24483783 28.59005072 -3.8913123 31.81367076 -8 35 C-8.87011719 35.82757812 -8.87011719 35.82757812 -9.7578125 36.671875 C-11.45153617 38.27028089 -13.04783655 39.7288238 -15 41 C-17.9375 40.875 -17.9375 40.875 -20 40 C-20.495 38.515 -20.495 38.515 -21 37 C-20.21496094 36.72027344 -19.42992187 36.44054687 -18.62109375 36.15234375 C-10.36895594 33.00336846 -3.8313275 29.64541218 -0.0625 21.3125 C2.10436367 14.50615522 1.55976945 6.88059588 0 0 Z " fill="#A0A0A0" transform="translate(481,630)"/>
<path d="M0 0 C2.46800047 1.15173355 4.04783565 2.04783565 6 4 C5.69690596 8.09176955 5.12300942 11.46165096 3 15 C2.34 13.02 1.68 11.04 1 9 C0.87625 10.27875 0.7525 11.5575 0.625 12.875 C0.25 16.75 0.25 16.75 -2 19 C-2.38887467 21.23124456 -2.38887467 21.23124456 -2.5 23.75 C-2.83176011 27.7951452 -3.49783491 31.20040594 -5 35 C-5.495 36.36125 -5.495 36.36125 -6 37.75 C-7 40 -7 40 -9 42 C-9.62081984 34.13628208 -7.33239506 27.34819295 -5.0625 19.875 C-4.32130194 17.39409873 -3.58291786 14.91235462 -2.84765625 12.4296875 C-2.51773682 11.33897949 -2.18781738 10.24827148 -1.84790039 9.12451172 C-1.02494256 6.0919133 -0.45974797 3.10643675 0 0 Z " fill="#A3A4A4" transform="translate(680,424)"/>
<path d="M0 0 C0.89386414 -0.01812744 1.78772827 -0.03625488 2.7086792 -0.05493164 C3.4988443 -0.07616089 4.2890094 -0.09739014 5.1031189 -0.1192627 C7.12811279 0.08374023 7.12811279 0.08374023 9.75311279 2.08374023 C10.43373779 3.07374023 10.43373779 3.07374023 11.12811279 4.08374023 C10.33147217 3.98834961 9.53483154 3.89295898 8.71405029 3.79467773 C0.74423565 2.88976325 0.74423565 2.88976325 -6.87188721 5.08374023 C-6.87188721 4.42374023 -6.87188721 3.76374023 -6.87188721 3.08374023 C-7.70333252 3.1675293 -8.53477783 3.25131836 -9.39141846 3.33764648 C-10.47809814 3.43948242 -11.56477783 3.54131836 -12.68438721 3.64624023 C-13.76333252 3.7506543 -14.84227783 3.85506836 -15.95391846 3.96264648 C-18.87188721 4.08374023 -18.87188721 4.08374023 -21.87188721 3.08374023 C-21.87188721 3.74374023 -21.87188721 4.40374023 -21.87188721 5.08374023 C-22.53188721 5.08374023 -23.19188721 5.08374023 -23.87188721 5.08374023 C-23.87188721 4.42374023 -23.87188721 3.76374023 -23.87188721 3.08374023 C-33.44188721 2.75374023 -43.01188721 2.42374023 -52.87188721 2.08374023 C-52.87188721 1.75374023 -52.87188721 1.42374023 -52.87188721 1.08374023 C-45.93425351 0.93988797 -38.99658804 0.79764851 -32.05889893 0.65649414 C-29.7021206 0.60835706 -27.34534959 0.55986005 -24.98858643 0.51098633 C-21.58772647 0.44052454 -18.1868417 0.37138647 -14.78594971 0.30249023 C-13.22283554 0.26967957 -13.22283554 0.26967957 -11.62814331 0.23620605 C-9.65098055 0.19663294 -7.67373018 0.16116073 -5.69641113 0.13037109 C-3.79736898 0.09901927 -1.89849403 0.05535744 0 0 Z " fill="#A9ABAB" transform="translate(524.8718872070313,567.916259765625)"/>
<path d="M0 0 C0.99 0.33 1.98 0.66 3 1 C2.38125 1.7425 1.7625 2.485 1.125 3.25 C-0.63423251 5.52665384 -1.79510468 7.42955664 -3 10 C-4.5 12.5 -4.5 12.5 -6 15 C-7.15024724 17.16517128 -8.05302647 19.16315837 -8.8125 21.5 C-10 24 -10 24 -15 28 C-9.39 28.33 -3.78 28.66 2 29 C2 29.33 2 29.66 2 30 C-4.93 30 -11.86 30 -19 30 C-13.37044745 19.86680541 -13.37044745 19.86680541 -11.2109375 16.54296875 C-10.51097656 15.46305664 -10.51097656 15.46305664 -9.796875 14.36132812 C-9.32765625 13.64396484 -8.8584375 12.92660156 -8.375 12.1875 C-7.89804687 11.45080078 -7.42109375 10.71410156 -6.9296875 9.95507812 C-4.71821375 6.55493723 -2.50102411 3.19761807 0 0 Z " fill="#B1B1B1" transform="translate(439,566)"/>
<path d="M0 0 C2.19623344 -0.00221767 4.39198769 -0.02052782 6.58813477 -0.03930664 C7.99112786 -0.04223585 9.39412331 -0.0442238 10.79711914 -0.04516602 C12.05838623 -0.0492749 13.31965332 -0.05338379 14.61914062 -0.05761719 C17.73852539 0.18530273 17.73852539 0.18530273 20.73852539 2.18530273 C19.32474757 2.55083076 17.90731963 2.90225769 16.48852539 3.24780273 C15.69961914 3.4450293 14.91071289 3.64225586 14.09790039 3.84545898 C11.61098305 4.2036739 10.12829427 3.83431365 7.73852539 3.18530273 C6.04902925 3.79178853 4.38215673 4.46370849 2.73852539 5.18530273 C1.07932643 5.55401361 -0.58623891 5.89811947 -2.26147461 6.18530273 C-2.26147461 5.19530273 -2.26147461 4.20530273 -2.26147461 3.18530273 C-3.51444336 3.28069336 -4.76741211 3.37608398 -6.05834961 3.47436523 C-7.70935121 3.58693353 -9.36039528 3.6988802 -11.01147461 3.81030273 C-11.83647461 3.87475586 -12.66147461 3.93920898 -13.51147461 4.00561523 C-14.31069336 4.05717773 -15.10991211 4.10874023 -15.93334961 4.16186523 C-17.03308105 4.24041748 -17.03308105 4.24041748 -18.1550293 4.32055664 C-20.60922902 4.16297358 -22.15000673 3.40795113 -24.26147461 2.18530273 C-24.26147461 1.85530273 -24.26147461 1.52530273 -24.26147461 1.18530273 C-16.1848185 0.12074727 -8.13150872 -0.00092163 0 0 Z " fill="#ACAEAD" transform="translate(584.261474609375,567.814697265625)"/>
<path d="M0 0 C17.82 0 35.64 0 54 0 C53.67 0.66 53.34 1.32 53 2 C39.85994826 2.60134609 26.71647275 3.11230447 13.5625 3.25 C12.54542969 3.27126953 11.52835937 3.29253906 10.48046875 3.31445312 C9.06894531 3.3212207 9.06894531 3.3212207 7.62890625 3.328125 C6.80463135 3.3374707 5.98035645 3.34681641 5.13110352 3.35644531 C3 3 3 3 0 0 Z " fill="#B6B7B7" transform="translate(325,377)"/>
<path d="M0 0 C2.5 2.25 2.5 2.25 5 5 C5 6.32 5 7.64 5 9 C6.49507102 14.77862334 8.39031636 20.45026062 10.23242188 26.12695312 C11.48579188 30.06882072 12.42905393 33.88790525 13 38 C13.66 38 14.32 38 15 38 C15.33 39.65 15.66 41.3 16 43 C14.68 43 13.36 43 12 43 C10.28574421 37.3599009 8.57688932 31.71820484 6.87304688 26.07495117 C6.29250342 24.15490434 5.71047946 22.23530451 5.12695312 20.31616211 C4.28908068 17.55959026 3.45652339 14.80146145 2.625 12.04296875 C2.23127197 10.75376778 2.23127197 10.75376778 1.82958984 9.43852234 C1.58934082 8.63791885 1.3490918 7.83731537 1.1015625 7.01245117 C0.88838379 6.3085173 0.67520508 5.60458344 0.45556641 4.87931824 C0 3 0 3 0 0 Z " fill="#B3B4B4" transform="translate(389,368)"/>
<path d="M0 0 C1.32 1.32 2.64 2.64 4 4 C3.34 5.98 2.68 7.96 2 10 C1.01 9.01 1.01 9.01 0 8 C-0.52567566 8.32721039 -1.05135132 8.65442078 -1.59295654 8.99154663 C-4.71093156 10.29785142 -7.13370976 10.19973836 -10.51269531 10.13525391 C-11.15701508 10.12579239 -11.80133484 10.11633087 -12.46517944 10.10658264 C-14.58645669 10.07301104 -16.70713644 10.02486841 -18.828125 9.9765625 C-20.30212867 9.95038434 -21.7761488 9.92511822 -23.25018311 9.90072632 C-27.12358478 9.83418315 -30.996639 9.75526744 -34.86975098 9.67376709 C-38.82449033 9.59274148 -42.77943306 9.52342714 -46.734375 9.453125 C-54.48982974 9.31354023 -62.24495474 9.16088315 -70 9 C-70 8.67 -70 8.34 -70 8 C-47.89 7.67 -25.78 7.34 -3 7 C-2.01 4.69 -1.02 2.38 0 0 Z " fill="#DDDEDE" transform="translate(631,600)"/>
<path d="M0 0 C25.41 0 50.82 0 77 0 C77 0.33 77 0.66 77 1 C68.33346607 1.15390754 59.66685864 1.30208812 51.000103 1.4429636 C46.97576284 1.5085579 42.95147589 1.57612248 38.92724609 1.64819336 C35.04346555 1.71767634 31.15963058 1.78197918 27.27570343 1.84269524 C25.79411965 1.86676602 24.31256494 1.89270144 22.83104706 1.92053413 C20.75557499 1.95920629 18.68009838 1.99124038 16.60449219 2.02172852 C14.83244415 2.05170677 14.83244415 2.05170677 13.02459717 2.08229065 C10.46683676 2.01270129 8.42500267 1.76184063 6 1 C6 1.66 6 2.32 6 3 C2.25 4.125 2.25 4.125 0 3 C0 2.01 0 1.02 0 0 Z " fill="#909191" transform="translate(408,609)"/>
<path d="M0 0 C2.88881923 0.30388378 5.65597719 0.5625 8.5625 0.5625 C9.5525 0.5625 10.5425 0.5625 11.5625 0.5625 C8.76788724 3.94990941 7.44612466 5.45398469 3 6 C-0.14971052 5.59912775 -1.69225926 4.93512037 -4.4375 3.5625 C-7.12743053 3.86628052 -7.12743053 3.86628052 -9.4375 4.5625 C-7.12314854 -0.56213538 -5.43595235 -0.58474388 0 0 Z " fill="#AEAFAF" transform="translate(623.4375,568.4375)"/>
<path d="M0 0 C0.58007812 0.40992188 1.16015625 0.81984375 1.7578125 1.2421875 C6.06084535 4.21028607 9.8686189 6.68426126 15 8 C16.125 13.75 16.125 13.75 15 16 C11.43239466 14.67866469 9.68069634 12.53589719 7.37109375 9.5859375 C5.93434448 7.92405658 4.42018519 6.65787909 2.6875 5.3125 C1.800625 4.549375 0.91375 3.78625 0 3 C0 2.01 0 1.02 0 0 Z " fill="#BABBBB" transform="translate(441,658)"/>
<path d="M0 0 C0.515625 0.268125 1.03125 0.53625 1.5625 0.8125 C7.61596163 3.76162233 12.28991609 5.41139615 19 6 C18.34 6.66 17.68 7.32 17 8 C17 9.32 17 10.64 17 12 C15.02 10.68 13.04 9.36 11 8 C11 8.99 11 9.98 11 11 C10.34 11 9.68 11 9 11 C9 10.34 9 9.68 9 9 C8.34 9 7.68 9 7 9 C3.95604931 6.26044438 1.55603771 3.81936528 0 0 Z " fill="#B1B2B2" transform="translate(569,660)"/>
<path d="M0 0 C3.5811348 3.21383892 5.66792338 5.12954296 6 10 C6.3238134 16.20642342 6.3238134 16.20642342 6 19 C5.34 19.66 4.68 20.32 4 21 C3.79503906 19.81921875 3.59007812 18.6384375 3.37890625 17.421875 C3.10684695 15.86457003 2.83470732 14.3072791 2.5625 12.75 C2.42779297 11.97269531 2.29308594 11.19539062 2.15429688 10.39453125 C1.95610352 9.26337891 1.95610352 9.26337891 1.75390625 8.109375 C1.63345947 7.41811523 1.5130127 6.72685547 1.38891602 6.01464844 C0.99755584 3.98733883 0.51910249 1.99805485 0 0 Z " fill="#B7B7B8" transform="translate(607,629)"/>
<path d="M0 0 C10.56 0 21.12 0 32 0 C32 0.33 32 0.66 32 1 C28.41713181 1.19720979 24.83369943 1.38107522 21.25 1.5625 C20.23421875 1.61857422 19.2184375 1.67464844 18.171875 1.73242188 C16.70234375 1.80493164 16.70234375 1.80493164 15.203125 1.87890625 C14.30239258 1.9260376 13.40166016 1.97316895 12.47363281 2.02172852 C10.12542592 2.00110175 8.23793298 1.67823071 6 1 C6 1.66 6 2.32 6 3 C2.25 4.125 2.25 4.125 0 3 C0 2.01 0 1.02 0 0 Z " fill="#9FA0A0" transform="translate(408,609)"/>
<path d="M0 0 C2.5625 1.5625 2.5625 1.5625 5 4 C4.92582217 8.15395838 4.13912756 11.4347874 2 15 C0.2520497 9.75614911 -0.19392201 5.52677733 0 0 Z " fill="#C9CAC9" transform="translate(681,424)"/>
<path d="M0 0 C0.99 0.495 0.99 0.495 2 1 C2 1.66 2 2.32 2 3 C2.66 3 3.32 3 4 3 C4.91297308 7.97063121 4.91297308 12.02936879 4 17 C3.34 16.67 2.68 16.34 2 16 C1.62109375 13.671875 1.62109375 13.671875 1.4375 10.75 C1.19440759 7.07880852 0.79381096 3.59511079 0 0 Z " fill="#B7B8B8" transform="translate(481,630)"/>
<path d="M0 0 C2.5 2.25 2.5 2.25 5 5 C5 6.32 5 7.64 5 9 C5.33 9.33 5.66 9.66 6 10 C6.04080783 11.99958364 6.04254356 14.00045254 6 16 C5.34 16 4.68 16 4 16 C3.32815382 13.89748139 2.66269032 11.79292237 2 9.6875 C1.443125 7.92986328 1.443125 7.92986328 0.875 6.13671875 C0 3 0 3 0 0 Z " fill="#C6C6C6" transform="translate(389,368)"/>
<path d="M0 0 C0.99 0.33 1.98 0.66 3 1 C2.38125 1.7425 1.7625 2.485 1.125 3.25 C-0.97925332 5.76683572 -0.97925332 5.76683572 -1.9375 8 C-3.45356621 10.8537717 -5.67036309 12.79297556 -8 15 C-7.4520917 10.7170548 -5.97567196 8.14864359 -3.4375 4.6875 C-2.79683594 3.80449219 -2.15617187 2.92148437 -1.49609375 2.01171875 C-0.75552734 1.01591797 -0.75552734 1.01591797 0 0 Z " fill="#9C9C9C" transform="translate(439,566)"/>
<path d="M0 0 C1.32 1.32 2.64 2.64 4 4 C3.34 5.98 2.68 7.96 2 10 C1.34 9.34 0.68 8.68 0 8 C-1.98 8.99 -1.98 8.99 -4 10 C-4.33 9.34 -4.66 8.68 -5 8 C-4.0409375 7.13375 -4.0409375 7.13375 -3.0625 6.25 C-1.01776132 4.01937599 -0.41794801 2.92563609 0 0 Z " fill="#BDBDBD" transform="translate(631,600)"/>
<path d="M0 0 C-2.97640008 1.6535556 -5.59667215 2.66796802 -9 3 C-11.8125 2.0625 -11.8125 2.0625 -14 1 C-14 0.67 -14 0.34 -14 0 C-4.58997722 -1.33257403 -4.58997722 -1.33257403 0 0 Z " fill="#A9ABAA" transform="translate(605,569)"/>
<path d="M0 0 C0.33 1.32 0.66 2.64 1 4 C1.66 4 2.32 4 3 4 C3.33 5.65 3.66 7.3 4 9 C2.68 9 1.36 9 0 9 C-0.84454356 5.62182575 -1.10844919 3.32534757 0 0 Z " fill="#BCBDBE" transform="translate(401,402)"/>
<path d="M0 0 C0.33 0.66 0.66 1.32 1 2 C1.66 2.33 2.32 2.66 3 3 C2.01 5.64 1.02 8.28 0 11 C-0.66 10.67 -1.32 10.34 -2 10 C-1.34 6.7 -0.68 3.4 0 0 Z " fill="#A6A7A6" transform="translate(648,538)"/>
<path d="M0 0 C2.64 1.65 5.28 3.3 8 5 C7.67 6.32 7.34 7.64 7 9 C5.82460004 8.07347299 4.65989423 7.13336613 3.5 6.1875 C2.52546875 5.40439453 2.52546875 5.40439453 1.53125 4.60546875 C0 3 0 3 0 0 Z " fill="#C0C1C1" transform="translate(441,658)"/>
<path d="M0 0 C0.33 0.66 0.66 1.32 1 2 C1.66 2 2.32 2 3 2 C3 4.97 3 7.94 3 11 C0.60236815 8.60236815 0.65719414 7.66726502 0.375 4.375 C0.30023437 3.55773437 0.22546875 2.74046875 0.1484375 1.8984375 C0.09945312 1.27195312 0.05046875 0.64546875 0 0 Z " fill="#BABBBB" transform="translate(681,428)"/>
<path d="M0 0 C0.33 0.66 0.66 1.32 1 2 C0.06553465 4.03144641 -0.93224776 6.03533587 -2 8 C-2.66 8 -3.32 8 -4 8 C-4.33 8.66 -4.66 9.32 -5 10 C-4.49701212 5.59885603 -2.91227269 3.28804981 0 0 Z " fill="#9B9C9C" transform="translate(429,582)"/>
<path d="M0 0 C2.64 0.66 5.28 1.32 8 2 C7.67 2.99 7.34 3.98 7 5 C4.0625 4.1875 4.0625 4.1875 1 3 C0.67 2.01 0.34 1.02 0 0 Z " fill="#A4A5A5" transform="translate(448,664)"/>
<path d="M0 0 C0.66 0.33 1.32 0.66 2 1 C2.1875 3.375 2.1875 3.375 2 6 C1.01 6.66 0.02 7.32 -1 8 C-1.04241723 5.66705225 -1.04092937 3.33297433 -1 1 C-0.67 0.67 -0.34 0.34 0 0 Z " fill="#A7A7A7" transform="translate(483,646)"/>
</svg>
