<?xml version="1.0" encoding="UTF-8"?>
<svg version="1.1" xmlns="http://www.w3.org/2000/svg" width="1024" height="1024">
<path d="M0 0 C337.92 0 675.84 0 1024 0 C1024 337.92 1024 675.84 1024 1024 C686.08 1024 348.16 1024 0 1024 C0 686.08 0 348.16 0 0 Z " fill="#FEFEFE" transform="translate(0,0)"/>
<path d="M0 0 C3.64013016 3.28499551 7.33374789 6.62026362 7.765625 11.703125 C7.88289575 18.85664079 7.32598517 23.3187244 2.3125 28.75 C0.95125 30.0184375 0.95125 30.0184375 -0.4375 31.3125 C-1.47954821 32.39546633 -2.52118189 33.47883163 -3.5625 34.5625 C-7.34747836 38.34747836 -11.43494622 41.69867461 -15.61328125 45.0390625 C-17.42933267 46.50094622 -19.22111026 47.99379556 -20.98046875 49.5234375 C-27.39211207 55.00748218 -33.76066038 58.01518542 -41.984375 59.89453125 C-45.84037665 62.12339845 -47.03439799 65.68367513 -48.875 69.625 C-52.34890353 77.03138745 -55.57698717 80.73882478 -62.4375 85.3125 C-67.18925157 85.7798854 -69.47336856 85.8036613 -73.75 83.625 C-77.10731719 80.73614567 -79.08169083 78.68456115 -79.75390625 74.203125 C-80.03873016 68.7271556 -79.17748762 65.51998607 -75.4375 61.3125 C-71.38098867 57.58312668 -67.3583315 55.14902219 -62.1875 53.25 C-57.96812028 51.65802544 -55.63566758 50.43406421 -53.4375 46.3125 C-53.16075891 44.94263162 -52.91366596 43.56662072 -52.6875 42.1875 C-50.65865107 31.67910298 -40.66571479 22.78249369 -33.78808594 14.8671875 C-32.50097135 13.38556319 -31.22289801 11.89609893 -29.9453125 10.40625 C-22.00369116 1.31483163 -12.43119193 -6.10258513 0 0 Z " fill="#464747" transform="translate(479.4375,538.6875)"/>
<path d="M0 0 C3.43761572 2.12108204 5.77560839 4.1042085 7 8 C7.68361993 13.92470602 6.40579251 18.20965683 3 23 C-1.12010611 27.13103477 -6.25149591 29.08005996 -11.66796875 31.0078125 C-14.22240586 32.09462494 -16.00341523 33.06046051 -18 35 C-18.83979546 37.57611479 -18.83979546 37.57611479 -19.25 40.5 C-22.05098031 52.80957134 -32.26006719 61.98390579 -40.43139648 71.20458984 C-41.49846261 72.42594459 -42.54960621 73.66135468 -43.58618164 74.90869141 C-46.22583521 78.08325824 -48.56905552 80.78049122 -52.1875 82.875 C-52.84105469 83.26429688 -53.49460937 83.65359375 -54.16796875 84.0546875 C-58.69920441 86.39276646 -63.01543636 86.69364478 -68 86 C-72.67145547 84.24615532 -75.99578621 81.64435052 -78.5 77.3125 C-80.74106358 71.97615578 -81.19156039 66.5331151 -79.328125 61.0078125 C-75.70650669 54.29388932 -69.17521575 49.31525298 -63.52587891 44.34521484 C-62.25956634 43.22883368 -61.00858233 42.09509347 -59.76171875 40.95703125 C-42.50210499 25.34119023 -42.50210499 25.34119023 -32.375 24.375 C-29.54230518 23.80656626 -28.38670328 23.55310287 -26.7109375 21.15625 C-26.05640065 19.60239016 -25.4471294 18.02886376 -24.87890625 16.44140625 C-22.39205332 9.53348144 -18.04435935 4.13938354 -12 0 C-7.81974477 -1.39341841 -4.26686312 -0.97485449 0 0 Z " fill="#474747" transform="translate(617,401)"/>
<path d="M0 0 C1.21236328 -0.05607422 1.21236328 -0.05607422 2.44921875 -0.11328125 C10.26581975 1.04907824 15.24579469 5.71531434 20.3125 11.4375 C21.22140991 12.43946411 21.22140991 12.43946411 22.14868164 13.46166992 C26.75418615 18.57882866 31.17783092 23.80578826 35.3125 29.3125 C35.94929687 30.11945312 36.58609375 30.92640625 37.2421875 31.7578125 C40.55913884 36.14829996 42.65825101 39.80607826 43.9375 45.1875 C44.91126124 49.27408146 44.91126124 49.27408146 47.3125 52.6875 C51.00278152 54.68640249 54.81243064 56.33736853 58.65234375 58.02734375 C63.83160582 60.52951294 68.04282818 63.8905062 70.3125 69.3125 C70.84897806 74.94551965 70.47851282 78.45040888 67.3125 83.3125 C64.12881438 86.19771509 61.39388811 87.16407418 57.125 87.75 C51.86949927 87.14690975 49.0239504 84.98471731 45.3125 81.3125 C41.53849274 76.52595421 39.09736479 70.9492566 36.62109375 65.4140625 C35.08369821 62.94505116 34.01575976 62.30013163 31.3125 61.3125 C30.11625 61.065 28.92 60.8175 27.6875 60.5625 C16.98884282 57.92231572 9.47414998 50.06348286 1.77099609 42.68554688 C-0.09524182 40.92864664 -2.03854288 39.27431955 -4 37.625 C-16.17926145 27.07827785 -16.17926145 27.07827785 -16.92578125 20.078125 C-17.10964776 13.84601793 -16.41898312 10.35504476 -12.6875 5.3125 C-8.63639408 1.55781647 -5.48506365 0.16360472 0 0 Z " fill="#464747" transform="translate(553.6875,536.6875)"/>
<path d="M0 0 C7.4243439 4.9495626 10.82265489 11.02065214 13.6640625 19.36328125 C15.30397638 22.59995337 16.73088035 23.50693938 20 25 C22.12191136 25.55273931 22.12191136 25.55273931 24.25 25.8125 C35.01474649 28.07133205 43.24742511 37.3377297 51.22119141 44.42529297 C52.80675377 45.82892696 54.40818811 47.21458507 56.01171875 48.59765625 C67.42564967 58.54432549 67.42564967 58.54432549 68.46875 64.8203125 C68.76774799 70.7853223 68.21810316 75.5092991 64.609375 80.375 C59.96228019 85.06721224 54.83744255 86.43346023 48.37109375 86.53125 C42.07941865 85.12158309 37.48549803 80.95802977 33.125 76.4375 C32.6103418 75.9130127 32.09568359 75.38852539 31.56542969 74.84814453 C27.49448344 70.64200547 23.71592006 66.23999085 20.09765625 61.63671875 C18.72194399 59.90747149 17.29251175 58.2193668 15.80859375 56.58203125 C11.53329475 51.75558874 9.47630511 47.93018872 7.9375 41.625 C6.71187923 36.32405146 6.71187923 36.32405146 3 32.5 C1.68002716 31.96572528 0.34383106 31.47105822 -1 31 C-14.03732057 25.24213826 -14.03732057 25.24213826 -18 18 C-19.20643566 14.38069302 -19.32268559 11.80768995 -19 8 C-14.75827697 -0.16924435 -8.90105511 -2.96701837 0 0 Z " fill="#464746" transform="translate(419,401)"/>
<path d="M0 0 C1.25538574 -0.04592285 1.25538574 -0.04592285 2.53613281 -0.09277344 C8.67877575 -0.09526741 12.67713352 1.63419428 17.4375 5.5 C20.70417573 8.90959279 22.71057299 12.74779519 23 17.5 C22.56628333 23.46653479 19.94105187 28.47725587 15.4375 32.375 C3.07774324 41.1298277 -18.30138533 35.83505788 -32.48901367 33.43286133 C-44.59061217 31.27130182 -44.59061217 31.27130182 -48.875 25.25 C-50.78683717 21.52035044 -51.23867734 18.7073257 -50.5625 14.5 C-48.15900003 9.01123805 -44.55619582 6.64310884 -39.18725586 4.38549805 C-34.49001224 2.80081731 -29.72556437 2.26736607 -24.8125 1.75 C-23.18453491 1.57114258 -23.18453491 1.57114258 -21.52368164 1.38867188 C-14.35802299 0.65710897 -7.20205532 0.14305274 0 0 Z " fill="#464747" transform="translate(447.5625,493.5)"/>
<path d="M0 0 C0.72735352 0.01434082 1.45470703 0.02868164 2.20410156 0.04345703 C10.20170559 0.27307773 18.14519103 1.10435614 26.07861328 2.10595703 C28.06924179 2.35260338 30.06384309 2.56661624 32.05859375 2.77734375 C40.01927612 3.74366936 45.97207985 5.48246982 51.25 11.75 C52.57931911 15.23946266 52.70581076 17.66339811 52.25 21.375 C49.93241754 25.75265575 47.32606426 28.59944795 43.25 31.375 C40.65874641 32.0972 38.3248109 32.61235004 35.6875 33 C34.5878894 33.17656128 34.5878894 33.17656128 33.46606445 33.35668945 C-3.00778923 38.97423731 -3.00778923 38.97423731 -12.06640625 33.64453125 C-16.26324443 30.47986209 -19.40399075 26.51430806 -20.75 21.375 C-21.59836049 15.01229635 -20.26148982 11.75003615 -16.74609375 6.453125 C-11.78037023 1.28333065 -7.02667899 -0.26871623 0 0 Z " fill="#464646" transform="translate(574.75,493.625)"/>
<path d="M0 0 C3.90348985 2.02403177 6.85263504 4.13474307 9 8 C13.16804053 22.62148617 18.78711696 47.0998024 12.4375 61.6875 C9.69853197 66.04628783 5.59896399 69.700518 1 72 C-4.58478961 72.8340234 -9.00759056 72.47856399 -13.875 69.5 C-18.15248482 66.214286 -20.76952453 63.31565404 -22 58 C-23.04203343 48.20973242 -21.75036341 38.3648189 -20.6875 28.625 C-20.57011475 27.53203613 -20.45272949 26.43907227 -20.33178711 25.31298828 C-18.25773314 7.90258244 -18.25773314 7.90258244 -12.875 2.375 C-8.7882739 -0.66628454 -4.922555 -1.0580355 0 0 Z " fill="#474747" transform="translate(516,398)"/>
<path d="M0 0 C5.24211874 2.34874151 9.14133684 6.2897074 11.3828125 11.5859375 C12.76790506 17.00357801 12.35321119 22.47041793 12 28 C11.95069336 28.83466797 11.90138672 29.66933594 11.85058594 30.52929688 C9.87073238 61.86755027 9.87073238 61.86755027 4.59179688 67.50341797 C0.12638225 71.30281844 -2.85881628 72.50718259 -8.61328125 72.38671875 C-13.04877015 71.66803888 -15.40827099 69.56945449 -18 66 C-20.83166752 58.03148068 -21.78154393 49.49063686 -22.6875 41.125 C-22.8119751 39.98820801 -22.9364502 38.85141602 -23.06469727 37.68017578 C-25.50589158 14.34282533 -25.50589158 14.34282533 -21.375 7.6875 C-15.48367873 0.45724207 -9.29182731 -1.84837425 0 0 Z " fill="#474747" transform="translate(518,554)"/>
<path d="M0 0 C4.08780951 1.51071221 6.24735668 3.96064023 8.2734375 7.83984375 C10.12603818 13.34784471 9.68414854 19.01957003 7.8125 24.4375 C5.401111 27.84670514 2.73230245 30.13384878 -1 32 C-4.95343894 32.63609303 -8.51514728 32.83174081 -12.078125 30.8359375 C-15.5066185 28.0268777 -18.09171439 25.44050742 -19 21 C-19.54519127 14.99279994 -19.56380669 10.10812292 -16 5 C-11.19221591 -0.39409922 -7.08409644 -1.05608808 0 0 Z " fill="#474848" transform="translate(517,633)"/>
<path d="M0 0 C4.71362305 1.9901964 7.72172827 5.44345654 10 10 C10.60894023 16.40558276 10.15213317 21.37119078 7 27 C4.25081814 30.26465346 2.26630063 31.65302762 -2.015625 32.30859375 C-6.53069377 32.56907849 -9.3446571 32.25981935 -12.9375 29.375 C-17.25466523 25.07782165 -18.08111187 20.94900814 -18.375 15 C-18.23900537 8.96183858 -15.81921377 5.97514638 -11.8125 1.625 C-7.84017594 -0.67012057 -4.48488713 -0.66987385 0 0 Z " fill="#474848" transform="translate(516,359)"/>
<path d="M0 0 C3.5625 1.6875 3.5625 1.6875 6 4 C6.78375 4.721875 7.5675 5.44375 8.375 6.1875 C10.68221611 10.18075865 10.76410727 13.49495089 10 18 C7.80675904 22.84340713 4.96033693 25.20365206 0.2109375 27.3046875 C-4.29856921 28.72287159 -8.56207961 28.92424061 -13.01953125 27.234375 C-17.79544387 24.70062768 -20.31352186 22.05943441 -22 17 C-22.38773716 12.26960665 -22.48117872 9.94453601 -20.3125 5.6875 C-14.59181961 -0.96085829 -8.31111125 -0.94206551 0 0 Z " fill="#474848" transform="translate(381,498)"/>
<path d="M0 0 C3.6905931 2.76794483 6.06310016 5.38734583 6.8828125 10.0546875 C7.08466109 14.0512896 6.66335636 16.52868452 4.9375 20.1875 C0.84662803 24.69794858 -2.88022831 27.06169284 -8.9375 27.375 C-13.7538653 27.12020934 -17.65639563 25.81626836 -21.5 22.875 C-24.87312419 19.12180548 -26.27781925 14.89611905 -26.0234375 9.8671875 C-24.85114097 5.40546189 -21.46466192 2.13321965 -17.6640625 -0.30078125 C-12.16216902 -2.39626776 -5.49654755 -1.76674743 0 0 Z " fill="#484848" transform="translate(658.5,499.125)"/>
<path d="M0 0 C8.57594937 6.00316456 8.57594937 6.00316456 10.5 9.75 C10.90501089 12.80145189 11.0695631 15.71791406 10.5 18.75 C8.58189921 21.21212353 7.53691529 21.7376949 4.5 22.75 C-2.8391658 23.62056171 -8.48645804 23.32671793 -14.44921875 18.7265625 C-18.09893381 15.20893236 -21.46249337 11.42344177 -23.5 6.75 C-23.1796875 3.4375 -23.1796875 3.4375 -22.5 0.75 C-15.24295729 -1.99324958 -7.38183829 -2.63637082 0 0 Z " fill="#494A4A" transform="translate(604.5,537.25)"/>
<path d="M0 0 C7.35859522 1.50175413 11.1160865 6.68609761 15.0625 12.625 C17.79416006 18.08832013 16.18897257 26.78782397 15.0625 32.625 C13.875 34.6875 13.875 34.6875 12.0625 35.625 C6.5746491 35.39666761 3.62317858 33.04206004 -0.1875 29.375 C-0.71601563 28.89675781 -1.24453125 28.41851562 -1.7890625 27.92578125 C-5.84607664 24.12619186 -7.60896001 21.19452856 -8.30859375 15.72265625 C-8.51016903 6.50948014 -8.51016903 6.50948014 -5.8125 2.875 C-2.9375 0.625 -2.9375 0.625 0 0 Z " fill="#484949" transform="translate(471.9375,407.375)"/>
<path d="M0 0 C2.36497439 1.86708505 3.66030715 3.32061431 5 6 C5.56085467 12.05906934 6.03093332 18.14909548 2.47265625 23.33984375 C-1.60494399 27.93660795 -6.23778037 32.64162319 -12 35 C-14.125 34.8125 -14.125 34.8125 -16 34 C-18.37641094 30.4353836 -18.58856436 28.25150161 -19 24 C-19.08894531 23.30519531 -19.17789063 22.61039062 -19.26953125 21.89453125 C-19.84974879 14.27074265 -16.34743069 8.91851466 -11.51171875 3.2578125 C-7.87520786 -0.21206581 -4.87398132 -0.81233022 0 0 Z " fill="#48494A" transform="translate(555,408)"/>
<path d="M0 0 C7.93135928 2.15700818 12.36166996 8.3722962 17 14.75 C18 17 18 17 17.875 19.1875 C17 21 17 21 14 23 C6.3800906 24.1894929 -1.32033719 25.36222877 -8 21 C-15.41255605 15.17488789 -15.41255605 15.17488789 -17 12 C-17.46829751 7.86337199 -17.40026125 5.67186709 -15.25 2.0625 C-10.27671853 -1.09362093 -5.72870054 -0.78322078 0 0 Z " fill="#494A4A" transform="translate(426,464)"/>
<path d="M0 0 C3.72375775 3.72375775 2.99399296 10.45119933 3.16015625 15.55078125 C3.13461464 20.91340854 1.74675467 24.17223442 -2 28 C-3.11375 29.4540625 -3.11375 29.4540625 -4.25 30.9375 C-7.97878663 33.73408997 -11.36184597 34.46815013 -16 34 C-18.55151968 32.15014823 -19.60976715 30.7804657 -21 28 C-21.68032971 21.92009144 -22.26265575 15.83043414 -18.625 10.625 C-13.93941993 5.39406738 -7.45663126 -1.00595363 0 0 Z " fill="#484949" transform="translate(485,581)"/>
<path d="M0 0 C6.91994831 2.43166016 13.98545847 8.10579013 17.49609375 14.578125 C19.41065932 20.30156174 18.9717852 25.84107481 16.859375 31.41015625 C15.234375 33.78515625 15.234375 33.78515625 13.234375 34.78515625 C9.70632247 35.34964466 7.26258619 35.39595582 4.13671875 33.5390625 C-1.48566354 28.98861104 -5.18983482 23.75864822 -6.03515625 16.45703125 C-6.07732739 14.20279192 -5.97041262 12.02962856 -5.765625 9.78515625 C-5.6625 8.50640625 -5.559375 7.22765625 -5.453125 5.91015625 C-4.765625 2.78515625 -4.765625 2.78515625 -3.453125 0.78515625 C-1.765625 -0.21484375 -1.765625 -0.21484375 0 0 Z " fill="#494A4A" transform="translate(541.765625,580.21484375)"/>
<path d="M0 0 C1 1 1 1 1.28125 3.25390625 C0.6185649 9.72428997 -6.01301702 15.42892892 -10.6875 19.625 C-15.15391854 22.74440342 -19.64448639 22.63968034 -24.94921875 22.6015625 C-28.64947738 21.87193404 -30.38027928 20.68652598 -33 18 C-33.77406012 13.27823328 -33.59501198 10.35506969 -31 6.3125 C-22.52830353 -4.03388561 -12.05336557 -3.33598198 0 0 Z " fill="#494A4A" transform="translate(442,538)"/>
<path d="M0 0 C1.69576172 -0.03867187 1.69576172 -0.03867187 3.42578125 -0.078125 C7.27768663 0.30937207 9.93078866 1.49328866 12.6875 4.25 C13.2647556 8.36294618 13.53851238 10.86280063 11.3359375 14.453125 C7.58170062 18.91851688 3.73788264 22.67796531 -2.30566406 23.53149414 C-4.50390876 23.65185985 -6.67392847 23.659602 -8.875 23.625 C-9.9877832 23.64240234 -9.9877832 23.64240234 -11.12304688 23.66015625 C-15.69163707 23.63574704 -18.5347317 23.07771568 -22.3125 20.25 C-20.75575058 12.24903207 -14.74024866 5.88858151 -8.3125 1.25 C-5.51142988 -0.15053506 -3.12358319 0.0424496 0 0 Z " fill="#494949" transform="translate(602.3125,463.75)"/>
<path d="M0 0 C3.74225404 1.1566967 5.28964665 1.79776291 7.4375 5.0625 C7.99671637 8.97701456 8.07024809 11.1007229 5.875 14.4375 C2.62723471 16.60267686 0.33192816 17.0625 -3.5625 17.0625 C-5.97531883 15.22113826 -7.21400913 13.75948174 -8.5625 11.0625 C-9.10008841 7.03058695 -8.8700996 5.5005964 -6.5 2.125 C-3.5625 0.0625 -3.5625 0.0625 0 0 Z " fill="#515152" transform="translate(706.5625,502.9375)"/>
<path d="M0 0 C4.10703441 0.85563217 5.55401113 2.24378009 8 5.625 C8.62601538 9.58976406 8.65946039 11.62262021 6.4375 15 C3.14507816 17.1949479 0.95830645 17.69444397 -3 17.625 C-5.9375 15.625 -5.9375 15.625 -8 12.625 C-8.625 9.125 -8.625 9.125 -8 5.625 C-5.55401113 2.24378009 -4.10703441 0.85563217 0 0 Z " fill="#505252" transform="translate(318,502.375)"/>
<path d="M0 0 C4.10703441 0.85563217 5.55401113 2.24378009 8 5.625 C8.625 9.1875 8.625 9.1875 8 12.625 C5.28148463 15.83779089 3.59276322 16.53140581 -0.5625 17.1875 C-4 16.625 -4 16.625 -6.4375 14.5 C-8.29055839 11.09037255 -8.71588388 9.44304737 -8 5.625 C-5.54405875 2.30225596 -4.0743356 0.84881992 0 0 Z " fill="#4F5050" transform="translate(512,697.375)"/>
<path d="M0 0 C1.90625 0.4140625 1.90625 0.4140625 4.40625 1.9765625 C6.51631839 5.40542364 6.53116523 7.45626601 5.90625 11.4140625 C3.46026113 14.79528241 2.01328441 16.18343033 -2.09375 17.0390625 C-6.1680856 16.19024258 -7.63780875 14.73680654 -10.09375 11.4140625 C-10.80335213 7.62951782 -10.37176176 5.94691837 -8.59375 2.5390625 C-5.55206021 -0.04637382 -3.89367767 -0.27604431 0 0 Z " fill="#505151" transform="translate(514.09375,309.5859375)"/>
<path d="M0 0 C1.91015625 0.4453125 1.91015625 0.4453125 4.47265625 2.5078125 C6.37466577 6.3945276 6.18079195 8.33443229 4.91015625 12.4453125 C2.492178 15.06478894 0.88558781 16.2258404 -2.58984375 17.0078125 C-6.36577229 16.15822858 -7.80310215 14.51607979 -10.08984375 11.4453125 C-10.71475898 7.48751601 -10.69991214 5.43667364 -8.58984375 2.0078125 C-5.55947306 0.11383082 -3.53153441 -0.19802997 0 0 Z " fill="#4E4F4F" transform="translate(651.08984375,367.5546875)"/>
<path d="M0 0 C4.05558807 1.32728337 5.34349656 2.43955395 7.4375 6.125 C8 8.625 8 8.625 7.4375 11.125 C4.78726997 14.73895004 3.3230437 15.96964146 -1.125 16.75 C-4.5625 16.125 -4.5625 16.125 -7 14 C-8.85305839 10.59037255 -9.27838388 8.94304737 -8.5625 5.125 C-5.89616981 1.32749942 -4.69543738 0.16475219 0 0 Z " fill="#4D4E4F" transform="translate(649.5625,639.875)"/>
<path d="M0 0 C1.94140625 0.34375 1.94140625 0.34375 4.44140625 1.90625 C6.55147464 5.33511114 6.56632148 7.38595351 5.94140625 11.34375 C3.87890625 14.34375 3.87890625 14.34375 0.94140625 16.34375 C-2.56589976 16.34375 -4.90698216 16.21812176 -7.74609375 14.0625 C-9.42118124 11.86893305 -9.46096398 10.58077342 -9.43359375 7.84375 C-9.44132812 7.0703125 -9.4490625 6.296875 -9.45703125 5.5 C-8.48365705 0.23232787 -4.91668825 -0.21731219 0 0 Z " fill="#494A4B" transform="translate(377.05859375,367.65625)"/>
<path d="M0 0 C2.875 1.5625 2.875 1.5625 5 4 C5.625 7.4375 5.625 7.4375 5 11 C2.52070473 14.4272611 1.14517131 15.81303325 -3.0625 16.5 C-7.88979896 15.67833209 -7.88979896 15.67833209 -10 13 C-10.80596676 8.65764848 -10.7638671 5.20455966 -8.375 1.4375 C-5.25576511 -0.45045796 -3.59388548 -0.58675681 0 0 Z " fill="#4C4C4D" transform="translate(378,640)"/>
<path d="M0 0 C0 4.38968456 -2.12805101 5.76905739 -5 9 C-5.33 8.34 -5.66 7.68 -6 7 C-4.02 4.69 -2.04 2.38 0 0 Z " fill="#595B5A" transform="translate(407,597)"/>
</svg>
